<?xml version="1.0" standalone="no"?>
<!DOCTYPE svg PUBLIC "-//W3C//DTD SVG 20010904//EN"
 "http://www.w3.org/TR/2001/REC-SVG-20010904/DTD/svg10.dtd">
<svg version="1.0" xmlns="http://www.w3.org/2000/svg"
 width="640.000000pt" height="640.000000pt" viewBox="0 0 640.000000 640.000000"
 preserveAspectRatio="xMidYMid meet">
<metadata>
Created by potrace 1.11, written by Peter Selinger 2001-2013
</metadata>
<g transform="translate(0.000000,640.000000) scale(0.100000,-0.100000)"
fill="#000000" stroke="none">
<path d="M1158 6393 c7 -3 16 -2 19 1 4 3 -2 6 -13 5 -11 0 -14 -3 -6 -6z"/>
<path d="M1273 6393 c9 -2 23 -2 30 0 6 3 -1 5 -18 5 -16 0 -22 -2 -12 -5z"/>
<path d="M1353 6393 c9 -2 23 -2 30 0 6 3 -1 5 -18 5 -16 0 -22 -2 -12 -5z"/>
<path d="M4892 6391 c168 -4 309 -9 313 -13 10 -10 -4 -28 -21 -28 -8 0 -23 5
-34 12 -15 10 -22 9 -38 -5 -15 -14 -36 -17 -120 -15 -104 3 -133 -4 -64 -16
21 -3 47 -15 57 -26 13 -14 31 -20 62 -20 23 0 43 4 43 9 0 5 9 7 21 4 15 -4
19 -11 15 -27 -3 -11 -6 -25 -6 -30 0 -12 -98 0 -115 14 -8 7 -15 7 -19 1 -9
-14 59 -33 112 -30 110 6 129 1 141 -31 5 -16 12 -30 15 -30 6 0 -1 37 -10 51
-5 9 8 10 45 7 61 -6 73 -15 47 -34 -19 -14 -19 -14 3 -14 12 0 19 4 16 10
-11 18 20 21 70 6 27 -9 51 -13 53 -11 9 9 -11 25 -32 25 -13 0 -30 7 -37 16
-12 15 -10 16 21 10 19 -4 44 -11 55 -16 11 -5 32 -11 48 -14 15 -4 27 -13 27
-22 0 -13 -7 -15 -37 -10 -35 6 -37 5 -19 -9 23 -18 66 -20 66 -4 0 19 44 54
63 51 10 -2 17 3 17 11 0 13 28 32 36 24 2 -2 -10 -28 -26 -58 -16 -29 -29
-58 -30 -63 0 -15 48 42 52 61 2 10 13 19 26 21 17 3 22 -2 22 -18 0 -33 -49
-122 -86 -157 -33 -31 -43 -53 -25 -53 5 0 13 8 16 18 4 9 23 31 43 47 20 17
32 23 28 15 -5 -8 13 5 40 30 102 94 112 108 143 183 6 15 17 27 25 27 8 0 15
13 18 35 5 44 -3 45 -23 3 -43 -91 -78 -147 -119 -185 -24 -23 -46 -41 -48
-39 -13 13 128 252 161 273 7 5 39 11 72 14 33 3 -266 6 -665 6 -484 -1 -623
-3 -418 -6z m978 -9 c0 -15 -37 -30 -51 -21 -8 5 -27 9 -44 10 -27 2 -5 6 83
17 6 1 12 -1 12 -6z m-805 -73 c5 -5 -1 -9 -17 -9 -36 0 -59 10 -52 22 7 11
53 2 69 -13z m713 -68 c-23 -41 -32 -48 -42 -32 -6 9 54 84 62 77 2 -2 -7 -23
-20 -45z m-546 16 c11 -18 -2 -28 -30 -25 -31 3 -64 26 -56 40 7 11 77 -1 86
-15z m101 -4 c4 -2 5 -8 2 -12 -7 -13 -68 3 -73 18 -3 10 3 11 29 6 19 -4 37
-9 42 -12z m245 -42 c3 -8 -1 -12 -9 -9 -7 2 -15 10 -17 17 -3 8 1 12 9 9 7
-2 15 -10 17 -17z"/>
<path d="M6067 6393 c18 -2 50 -2 70 0 21 2 7 4 -32 4 -38 0 -55 -2 -38 -4z"/>
<path d="M6213 6393 c15 -2 37 -2 50 0 12 2 0 4 -28 4 -27 0 -38 -2 -22 -4z"/>
<path d="M6376 6369 c-3 -17 -6 -41 -6 -52 0 -23 -26 -46 -52 -47 -13 0 -18 8
-18 28 0 17 -10 37 -23 50 -30 28 -39 28 -28 -1 6 -14 5 -29 0 -38 -8 -12 -12
-11 -24 5 -8 11 -15 26 -15 35 0 8 -2 12 -5 9 -8 -7 22 -129 34 -141 8 -8 11
-6 11 5 0 26 19 32 42 11 20 -17 21 -17 15 0 -5 14 0 19 23 24 17 3 33 10 36
14 15 25 20 -10 16 -106 -3 -74 -1 -105 7 -105 8 0 11 50 11 170 0 159 -9 212
-24 139z"/>
<path d="M1350 6337 c0 -24 45 -75 56 -65 3 4 -4 11 -15 18 -14 7 -21 21 -21
40 0 17 -4 30 -10 30 -5 0 -10 -10 -10 -23z"/>
<path d="M6010 6336 c-5 -13 -17 -29 -27 -34 -30 -17 -8 -23 27 -8 25 10 34
20 35 40 1 33 -22 34 -35 2z"/>
<path d="M1457 6331 c10 -10 37 -21 58 -25 51 -10 44 -3 -24 23 -49 18 -52 19
-34 2z"/>
<path d="M1791 6343 c0 -6 -4 -20 -7 -30 -5 -14 -4 -15 5 -7 7 7 11 20 8 30
-3 11 -5 14 -6 7z"/>
<path d="M4795 6328 c33 -5 67 -15 75 -22 20 -17 74 -31 65 -16 -3 5 -12 10
-19 10 -7 0 -25 9 -39 20 -19 15 -39 20 -84 19 l-58 -1 60 -10z"/>
<path d="M1090 6290 c0 -5 -15 -10 -32 -10 -53 0 -65 -16 -14 -18 25 -1 48 2
51 8 3 5 16 10 28 10 12 0 29 5 37 10 11 7 4 10 -27 10 -24 0 -43 -4 -43 -10z"/>
<path d="M1245 6290 c3 -5 8 -10 11 -10 2 0 4 5 4 10 0 6 -5 10 -11 10 -5 0
-7 -4 -4 -10z"/>
<path d="M1350 6236 c0 -2 8 -10 18 -17 15 -13 16 -12 3 4 -13 16 -21 21 -21
13z"/>
<path d="M1420 6236 c0 -3 9 -10 20 -16 11 -6 20 -8 20 -6 0 3 -9 10 -20 16
-11 6 -20 8 -20 6z"/>
<path d="M1313 6198 c-8 -28 -14 -33 -36 -31 -15 1 -27 -2 -27 -8 0 -5 3 -8 8
-8 24 4 34 -3 29 -20 -3 -14 -1 -18 9 -14 8 3 14 16 14 28 0 13 4 26 9 29 11
7 21 56 11 56 -4 0 -11 -15 -17 -32z"/>
<path d="M1217 6207 c-2 -6 -22 -11 -48 -10 -39 1 -41 0 -15 -8 16 -4 34 -5
39 -2 6 3 17 -3 25 -13 10 -14 16 -16 19 -6 3 7 16 17 29 22 13 5 24 13 24 17
0 13 -68 13 -73 0z"/>
<path d="M5910 6216 c0 -2 16 -20 35 -40 19 -21 35 -43 35 -49 0 -7 13 -26 28
-43 15 -18 42 -53 60 -78 17 -26 39 -49 47 -51 28 -9 40 -15 65 -31 19 -13 17
-10 -7 14 -18 18 -41 32 -51 32 -13 0 -32 21 -58 66 -21 36 -46 70 -56 75 -10
5 -18 15 -18 22 0 13 -62 87 -73 87 -4 0 -7 -2 -7 -4z"/>
<path d="M5208 6153 c7 -3 16 -2 19 1 4 3 -2 6 -13 5 -11 0 -14 -3 -6 -6z"/>
<path d="M5395 6150 c28 -12 47 -12 40 0 -3 6 -18 10 -33 9 -24 0 -25 -1 -7
-9z"/>
<path d="M996 6129 c11 -13 35 -40 53 -59 l32 -35 -23 35 c-12 20 -36 46 -53
60 l-30 24 21 -25z"/>
<path d="M5485 6120 c3 -5 11 -10 16 -10 6 0 7 5 4 10 -3 6 -11 10 -16 10 -6
0 -7 -4 -4 -10z"/>
<path d="M5590 6109 c0 -5 5 -7 10 -4 6 3 10 8 10 11 0 2 -4 4 -10 4 -5 0 -10
-5 -10 -11z"/>
<path d="M1157 6053 c-10 -9 -8 -106 2 -122 14 -22 19 1 11 54 -4 27 -5 55 -3
62 6 14 0 17 -10 6z"/>
<path d="M6385 6030 c3 -5 8 -10 11 -10 2 0 4 5 4 10 0 6 -5 10 -11 10 -5 0
-7 -4 -4 -10z"/>
<path d="M3570 5954 c-75 -13 -131 -29 -140 -39 -11 -13 -179 -13 -200 0 -6 4
-17 1 -25 -5 -8 -7 -15 -8 -15 -4 0 11 -162 0 -237 -15 -66 -13 -114 -33 -132
-54 -7 -10 -21 -17 -31 -17 -38 0 -134 -45 -165 -77 -18 -19 -35 -29 -37 -23
-2 6 -38 -22 -80 -62 -42 -41 -100 -87 -129 -102 l-54 -29 40 42 c38 40 41 58
3 24 -10 -9 -18 -11 -18 -5 0 15 40 42 62 42 14 0 98 38 98 44 0 9 -56 -5
-104 -27 -32 -15 -60 -27 -62 -27 -3 0 -38 -22 -80 -50 -41 -27 -80 -50 -85
-50 -18 0 -59 -49 -53 -63 3 -8 0 -18 -7 -23 -9 -5 -10 -2 -6 9 14 36 -105
-27 -173 -91 l-25 -24 33 17 c19 9 36 15 38 12 8 -8 -32 -34 -71 -45 -60 -17
-127 -65 -155 -112 -14 -22 -38 -62 -55 -87 -64 -98 -76 -120 -94 -178 -11
-33 -31 -87 -45 -120 -14 -33 -26 -70 -26 -83 0 -12 -15 -53 -34 -91 -43 -85
-72 -178 -80 -254 -4 -32 -14 -75 -23 -95 -13 -29 -16 -78 -19 -232 l-2 -195
34 -100 c18 -55 40 -136 49 -179 10 -53 26 -99 50 -138 36 -62 42 -82 25 -93
-5 -3 -10 -2 -10 2 0 5 -25 14 -56 21 -50 12 -58 12 -75 -4 -21 -19 -27 -6 -6
15 10 11 9 13 -3 9 -19 -6 -40 -66 -47 -135 -7 -64 21 -225 54 -313 14 -36 45
-130 69 -210 45 -149 106 -287 149 -338 23 -27 57 -41 141 -57 29 -6 31 -4 27
19 -4 18 0 28 11 32 9 3 16 11 16 16 0 6 -7 5 -15 -2 -20 -17 -32 -5 -15 15 8
9 8 15 2 15 -14 0 1 51 28 97 25 43 25 51 0 28 -11 -10 -20 -14 -20 -10 0 5
-7 0 -15 -11 -19 -25 -19 -15 0 29 10 25 12 43 6 59 -9 21 -10 21 -12 3 0 -11
-1 -28 0 -37 1 -10 -3 -18 -8 -18 -6 0 -11 21 -11 48 -1 85 -10 246 -15 277
-2 17 -7 59 -11 95 -3 36 -8 68 -10 71 -20 34 13 446 38 474 6 6 6 -12 1 -45
-14 -96 -7 -229 16 -315 35 -127 61 -195 75 -195 6 0 5 -5 -2 -12 -7 -7 -12
-31 -12 -54 0 -22 -4 -54 -9 -70 -5 -16 -11 -59 -13 -97 -3 -58 -2 -64 9 -45
11 21 12 20 9 -14 -2 -21 -9 -45 -16 -53 -11 -13 -10 -14 6 -8 16 6 15 2 -6
-31 -23 -38 -23 -38 -2 -27 12 7 22 8 22 4 0 -4 4 -1 10 7 28 45 7 -42 -35
-144 -6 -13 -5 -17 2 -13 6 4 14 19 17 33 7 27 56 98 63 91 6 -6 -26 -88 -57
-148 -38 -73 -39 -102 -14 -246 27 -163 110 -421 185 -581 16 -35 29 -67 29
-73 0 -5 9 -28 19 -52 41 -89 52 -153 54 -315 l2 -157 -69 -103 c-76 -115 -84
-135 -127 -347 -17 -82 -45 -184 -61 -225 -25 -63 -31 -93 -36 -187 -2 -62 -9
-110 -13 -107 -5 3 -9 0 -9 -5 0 -7 35 -11 98 -10 53 1 89 3 80 6 -28 7 -21
22 15 31 51 14 81 9 85 -12 2 -10 0 -16 -5 -13 -5 3 -24 2 -43 -3 -19 -4 958
-8 2173 -9 l2207 -1 0 213 0 212 -133 28 c-72 15 -143 29 -155 31 -58 11 -131
31 -206 58 -44 16 -94 33 -111 38 -16 5 -64 20 -105 35 -41 15 -104 33 -140
40 -36 8 -85 20 -110 28 -25 8 -79 25 -120 37 -41 12 -97 29 -125 37 -27 8
-104 29 -170 45 -132 33 -337 97 -485 151 -52 19 -139 51 -193 70 -152 55
-141 41 -156 210 -14 149 -10 215 16 255 8 13 20 42 28 65 7 23 30 87 50 142
20 55 48 136 61 180 28 91 77 341 77 397 1 29 6 38 23 42 76 19 126 114 282
541 58 158 75 222 87 340 11 104 -33 175 -110 175 -22 0 -25 -4 -25 -38 0 -98
-55 -242 -130 -342 -31 -41 -59 -80 -63 -86 -4 -6 -12 -55 -17 -109 -12 -104
-28 -166 -29 -110 0 17 6 68 13 115 14 86 13 109 -5 78 -6 -10 -20 -23 -32
-29 -12 -7 10 21 50 61 135 136 212 350 197 550 -6 82 8 112 58 124 21 5 40
16 43 23 7 20 -11 50 -36 58 -14 5 -18 12 -14 23 21 52 47 187 50 252 1 41 4
77 5 80 1 3 1 16 1 30 -1 14 3 66 8 115 11 90 0 239 -20 276 -5 9 -13 59 -19
110 -8 71 -18 109 -41 155 -17 34 -33 83 -35 110 -7 69 -51 157 -123 244 -34
41 -64 84 -67 96 -3 13 -27 31 -65 49 -57 28 -108 69 -97 80 12 13 92 -10 120
-33 16 -14 43 -48 59 -76 27 -48 84 -123 77 -101 -21 62 -75 149 -114 181 -26
20 -56 47 -69 60 -13 13 -46 27 -81 34 -32 7 -64 13 -70 15 -6 2 -10 24 -10
49 1 25 -3 46 -8 46 -4 0 -6 6 -3 13 2 6 -1 18 -9 24 -7 7 -14 8 -16 3 -2 -6
-4 22 -5 61 l-1 72 20 -34 c12 -19 23 -54 26 -79 6 -42 6 -43 12 -15 13 60
-50 194 -128 272 -29 30 -186 113 -212 113 -23 0 2 -20 40 -31 22 -7 47 -20
56 -31 10 -10 23 -18 30 -18 21 0 71 -49 97 -94 25 -44 53 -143 44 -152 -2 -3
-10 15 -16 40 -6 25 -15 48 -21 51 -14 9 -12 -10 5 -52 21 -49 19 -54 -6 -15
-12 17 -25 32 -29 32 -5 0 -30 35 -57 77 -55 89 -99 143 -117 143 -7 0 -21 9
-31 19 -9 11 -44 36 -77 55 -52 32 -69 37 -141 40 -45 3 -93 3 -107 0z m120
-13 c0 -5 -5 -11 -11 -13 -7 -2 7 -10 30 -16 22 -7 41 -18 41 -23 0 -7 -7 -8
-17 -4 -10 4 -34 9 -53 12 -19 4 -50 14 -68 24 -32 17 -33 18 -10 22 43 8 88
7 88 -2z m95 -31 c18 -20 18 -20 -16 -3 -44 21 -46 23 -22 23 11 0 28 -9 38
-20z m-310 -10 c-3 -5 -14 -10 -23 -10 -15 0 -15 2 -2 10 20 13 33 13 25 0z
m-390 -20 c-3 -5 -14 -10 -24 -10 -10 0 -21 -3 -25 -7 -4 -4 -21 -8 -38 -9
-16 -1 -44 -12 -61 -24 l-30 -23 19 26 c10 14 35 33 54 41 40 17 114 21 105 6z
m455 6 c0 -2 -7 -7 -16 -10 -8 -3 -12 -2 -9 4 6 10 25 14 25 6z m-423 -26
c-20 -11 -43 -20 -49 -20 -17 1 53 39 72 40 8 0 -2 -9 -23 -20z m183 4 c0 -2
-13 -4 -30 -4 -16 0 -30 4 -30 8 0 5 14 7 30 4 17 -2 30 -6 30 -8z m542 -9
c16 -14 25 -25 19 -25 -12 0 -69 49 -57 50 4 0 21 -11 38 -25z m-955 -13 c9
-6 7 -13 -9 -27 -15 -12 -23 -14 -26 -6 -3 9 -7 9 -18 0 -19 -16 -18 0 3 23
17 19 31 22 50 10z m658 -10 c-3 -3 -11 0 -18 7 -9 10 -8 11 6 5 10 -3 15 -9
12 -12z m-355 -1 c0 -5 -7 -12 -16 -15 -14 -5 -15 -4 -4 9 14 17 20 19 20 6z
m265 -1 c-3 -5 -12 -10 -18 -10 -7 0 -6 4 3 10 19 12 23 12 15 0z m-425 -15
c-7 -9 -15 -13 -17 -11 -7 7 7 26 19 26 6 0 6 -6 -2 -15z m690 -59 c0 -12 -59
46 -60 58 0 6 14 -3 30 -19 17 -16 30 -33 30 -39z m-74 7 c-7 -7 -26 7 -26 19
0 6 6 6 15 -2 9 -7 13 -15 11 -17z m-956 -3 c0 -5 -5 -10 -11 -10 -5 0 -7 5
-4 10 3 6 8 10 11 10 2 0 4 -4 4 -10z m1156 -27 c-7 -7 -26 7 -26 19 0 6 6 6
15 -2 9 -7 13 -15 11 -17z m-996 -13 c-14 -4 -36 -8 -50 -8 l-25 0 25 8 c14 4
36 8 50 8 l25 0 -25 -8z m-95 -9 c-3 -5 -20 -12 -38 -16 -17 -4 -69 -27 -114
-51 -81 -43 -107 -53 -87 -35 17 17 164 91 179 91 8 0 15 5 15 10 0 6 12 10
26 10 14 0 23 -4 19 -9z m388 -26 c-3 -9 -8 -14 -10 -11 -3 3 -2 9 2 15 9 16
15 13 8 -4z m-404 -28 c-2 -1 -13 -9 -24 -17 -19 -14 -19 -14 -6 3 7 9 18 17
24 17 6 0 8 -1 6 -3z m383 -24 c-3 -16 -7 -22 -10 -15 -4 13 4 42 11 42 2 0 2
-12 -1 -27z m-477 -19 c-34 -28 -220 -124 -241 -124 -7 0 -28 -13 -46 -28 -18
-16 -67 -47 -108 -69 -41 -22 -97 -52 -125 -67 -27 -15 -42 -21 -31 -14 10 7
32 23 50 35 61 44 136 93 141 93 3 0 13 7 23 16 38 35 113 76 128 70 10 -4 13
-2 8 6 -4 6 -3 8 4 4 6 -3 37 7 70 24 33 16 64 30 69 30 4 0 24 11 43 25 45
31 53 31 15 -1z m35 -8 c0 -2 -11 -11 -25 -20 -14 -9 -25 -13 -25 -8 0 5 10
14 23 20 27 13 27 13 27 8z m-180 -10 c0 -4 -105 -67 -125 -75 -5 -2 -43 -26
-82 -52 -40 -26 -73 -44 -73 -40 0 5 8 12 17 15 15 6 15 8 3 16 -8 6 -10 10
-5 11 6 1 15 3 20 3 21 4 55 31 55 46 0 11 2 12 8 3 8 -13 5 -15 112 46 52 29
70 36 70 27z m-194 -31 c-16 -13 -38 -26 -49 -29 -21 -5 -18 -2 27 32 39 30
58 27 22 -3z m313 -8 c-10 -8 -104 -60 -148 -82 -73 -37 -75 -30 -3 13 85 50
146 81 151 76 2 -2 2 -5 0 -7z m-334 -47 c-10 -11 -22 -17 -28 -13 -6 4 -3 12
8 20 28 20 41 16 20 -7z m286 -31 c-15 -12 -27 -16 -31 -9 -4 6 -19 0 -40 -15
-46 -34 -52 -31 -12 6 22 20 40 28 52 24 10 -3 21 -1 25 5 3 5 12 10 18 10 7
-1 1 -10 -12 -21z m-361 -13 c0 -2 -7 -7 -16 -10 -8 -3 -12 -2 -9 4 6 10 25
14 25 6z m-5 -35 c-3 -6 -11 -11 -17 -11 -6 0 -6 6 2 15 14 17 26 13 15 -4z
m203 -39 c-18 -17 -35 -28 -38 -25 -3 2 10 18 28 35 19 16 36 27 39 24 3 -2
-10 -18 -29 -34z m1782 14 c0 -3 -4 -8 -10 -11 -5 -3 -10 -1 -10 4 0 6 5 11
10 11 6 0 10 -2 10 -4z m-1850 -46 c-14 -11 -34 -20 -45 -20 -14 0 -9 7 20 24
45 28 62 24 25 -4z m-270 -82 c0 -18 -18 -6 -23 15 -3 12 -8 33 -12 47 -4 14
2 8 14 -15 12 -21 21 -43 21 -47z m298 20 c-20 -29 -43 -67 -52 -85 -9 -17
-20 -35 -26 -38 -5 -3 0 13 13 37 29 57 91 147 96 142 2 -2 -12 -28 -31 -56z
m1881 31 c-15 -9 -32 -2 -24 11 3 5 13 6 21 3 12 -4 13 -8 3 -14z m115 -14
c11 -8 17 -17 14 -20 -6 -6 -69 14 -82 26 -17 15 48 9 68 -6z m-2385 -30 c-3
-3 -21 -7 -40 -10 -27 -4 -30 -4 -13 4 12 5 25 15 29 21 5 8 10 9 18 1 6 -6 8
-13 6 -16z m271 21 c0 -3 -4 -8 -10 -11 -5 -3 -10 -1 -10 4 0 6 5 11 10 11 6
0 10 -2 10 -4z m-40 -10 c0 -3 -4 -8 -10 -11 -5 -3 -10 -1 -10 4 0 6 5 11 10
11 6 0 10 -2 10 -4z m2040 -18 c0 -13 -23 -5 -28 10 -2 7 2 10 12 6 9 -3 16
-11 16 -16z m-2375 2 c-3 -5 -12 -10 -18 -10 -7 0 -6 4 3 10 19 12 23 12 15 0z
m-35 -13 c0 -2 -10 -12 -22 -23 l-23 -19 19 23 c18 21 26 27 26 19z m55 -7
c-3 -5 -11 -10 -16 -10 -6 0 -7 5 -4 10 3 6 11 10 16 10 6 0 7 -4 4 -10z m235
-20 c0 -5 -4 -10 -10 -10 -5 0 -43 -20 -83 -45 -83 -50 -95 -54 -70 -25 10 11
23 20 30 20 7 0 13 5 13 10 0 6 5 10 11 10 6 0 24 11 41 25 30 25 68 34 68 15z
m-275 -9 c-9 -15 -95 -60 -95 -50 0 5 21 20 48 33 54 29 55 29 47 17z m100
-21 c-33 -15 -62 -26 -65 -23 -10 9 79 50 110 51 8 0 -12 -12 -45 -28z m170 0
c-3 -5 -11 -10 -16 -10 -6 0 -7 5 -4 10 3 6 11 10 16 10 6 0 7 -4 4 -10z m31
-25 c-11 -8 -36 -15 -55 -14 -36 1 -36 1 8 10 24 5 46 11 49 14 3 3 8 5 11 5
3 0 -3 -7 -13 -15z m2269 -15 c3 -5 2 -10 -4 -10 -5 0 -13 5 -16 10 -3 6 -2
10 4 10 5 0 13 -4 16 -10z m-2630 -10 c-3 -5 -11 -10 -16 -10 -6 0 -7 5 -4 10
3 6 11 10 16 10 6 0 7 -4 4 -10z m385 -50 c-36 -33 -69 -59 -74 -60 -5 0 -7 2
-5 4 52 47 135 116 139 116 3 -1 -24 -27 -60 -60z m-430 15 c-7 -8 -17 -15
-22 -15 -6 0 -5 7 2 15 7 8 17 15 22 15 6 0 5 -7 -2 -15z m275 2 c-43 -29
-108 -47 -173 -48 -37 0 -61 -3 -54 -6 17 -7 15 -23 -3 -23 -7 0 -18 -8 -24
-17 -13 -24 -25 -10 -13 14 6 10 8 31 5 46 -4 20 -1 27 11 27 9 0 16 -4 16
-10 0 -13 37 -7 52 8 17 17 29 15 22 -3 -11 -27 40 -28 102 -1 65 28 89 33 59
13z m-110 -17 c-3 -5 -13 -10 -21 -10 -8 0 -14 5 -14 10 0 6 9 10 21 10 11 0
17 -4 14 -10z m345 -5 c0 -8 -4 -15 -10 -15 -5 0 -7 7 -4 15 4 8 8 15 10 15 2
0 4 -7 4 -15z m185 5 c3 -5 1 -10 -4 -10 -6 0 -11 5 -11 10 0 6 2 10 4 10 3 0
8 -4 11 -10z m-725 -40 c-6 -12 -14 -19 -17 -17 -2 3 1 15 7 27 6 12 14 19 17
17 2 -3 -1 -15 -7 -27z m496 5 c-19 -14 -56 -21 -56 -10 0 4 53 22 70 24 3 0
-4 -6 -14 -14z m294 5 c0 -5 -2 -10 -4 -10 -3 0 -8 5 -11 10 -3 6 -1 10 4 10
6 0 11 -4 11 -10z m1700 -61 c47 -53 73 -94 102 -161 21 -50 37 -93 34 -96 -3
-2 -10 6 -15 19 -37 95 -87 187 -124 227 -49 54 -71 82 -65 82 2 0 33 -32 68
-71z m-2510 13 c0 -11 -41 -54 -46 -49 -9 8 9 37 22 37 8 0 14 5 14 10 0 6 2
10 5 10 3 0 5 -4 5 -8z m811 -16 c5 3 9 1 9 -5 0 -5 -4 -13 -10 -16 -5 -3 -10
-4 -10 -1 0 2 -2 10 -3 18 -2 7 -2 10 0 5 3 -4 9 -5 14 -1z m-758 -23 c-3 -10
-3 -15 2 -11 4 4 18 -6 31 -21 25 -30 31 -51 14 -51 -5 0 -26 -17 -46 -37 -20
-21 -32 -29 -26 -18 5 11 20 29 31 39 12 11 21 24 21 31 0 19 -37 48 -45 36
-3 -6 -16 -16 -28 -22 -18 -10 -18 -7 6 16 15 15 27 34 27 41 0 8 4 14 10 14
5 0 7 -8 3 -17z m397 12 c0 -11 -126 -65 -150 -64 -14 0 -18 3 -10 6 8 2 22 7
30 10 8 3 20 7 26 8 6 2 28 12 50 23 40 22 54 26 54 17z m130 -28 c0 -7 -13
-21 -30 -30 -17 -11 -30 -14 -30 -7 0 6 11 16 25 22 14 6 25 15 25 20 0 4 2 8
5 8 3 0 5 -6 5 -13z m90 -2 c0 -8 -2 -15 -4 -15 -2 0 -6 7 -10 15 -3 8 -1 15
4 15 6 0 10 -7 10 -15z m-40 -14 c13 -26 13 -31 -5 -31 -16 0 -38 34 -28 44
11 11 22 6 33 -13z m-662 -34 c10 4 14 2 9 -3 -7 -8 -57 -14 -57 -8 0 1 3 10
6 19 6 15 8 16 16 2 5 -10 15 -14 26 -10z m58 -49 c-17 -20 -35 -37 -41 -38
-9 -1 -50 -80 -71 -135 -6 -18 -7 -18 -11 -2 -3 10 4 32 15 51 10 18 27 56 36
84 21 62 86 125 97 95 4 -12 -4 -31 -25 -55z m180 57 c-11 -8 -29 -15 -40 -15
-17 1 -15 4 9 15 40 18 55 18 31 0z m392 -10 c16 -36 15 -38 -13 -33 -14 3
-25 1 -25 -3 0 -5 -5 -9 -11 -9 -5 0 -7 5 -4 10 3 6 1 10 -5 10 -7 0 -10 -7
-7 -15 4 -8 2 -17 -3 -20 -6 -4 -10 -11 -10 -18 0 -8 3 -8 12 1 17 17 33 15
18 -3 -7 -8 -21 -15 -32 -15 -23 0 -53 -61 -35 -72 18 -11 -13 -40 -37 -34
-11 3 -28 -2 -38 -11 -20 -18 -25 -4 -5 17 10 12 9 12 -5 1 -13 -10 -16 -23
-13 -49 3 -25 -2 -49 -17 -77 -11 -22 -24 -54 -28 -72 -6 -27 -4 -33 11 -38
20 -7 25 -34 11 -51 -5 -5 -17 -29 -26 -53 -9 -24 -37 -78 -62 -119 -25 -41
-44 -76 -41 -78 2 -2 21 23 41 56 20 33 45 65 55 72 21 15 52 62 50 74 -4 26
5 45 41 85 85 94 86 96 34 74 -49 -20 -51 -19 -24 10 27 28 8 36 -22 8 -10 -9
-21 -13 -24 -10 -8 8 57 47 79 47 15 0 16 -3 7 -20 -14 -25 -10 -25 48 3 76
37 82 38 75 19 -3 -9 -11 -24 -17 -32 -5 -8 4 -2 20 13 17 15 41 29 52 30 11
0 23 9 25 19 6 21 47 25 47 4 0 -14 29 -26 68 -26 13 0 32 -5 44 -11 20 -11
20 -11 -4 -27 -12 -9 -26 -16 -30 -15 -4 2 -16 -9 -27 -24 -12 -14 -21 -22
-21 -18 0 4 -6 2 -14 -4 -12 -10 -14 -8 -10 11 3 20 2 19 -8 -4 -6 -14 -19
-29 -28 -31 -9 -2 -20 -18 -23 -36 -4 -17 -11 -31 -17 -31 -7 0 -7 7 0 21 7
11 9 23 6 26 -3 3 -8 -2 -12 -11 -3 -9 -15 -16 -25 -16 -10 0 -19 -4 -19 -10
0 -5 -5 -10 -10 -10 -7 0 -7 6 0 20 6 11 9 20 7 20 -7 0 -65 -97 -72 -119 -9
-31 -23 -26 -17 7 3 18 -6 7 -27 -32 -30 -57 -82 -131 -106 -151 -15 -13 -91
-171 -99 -207 -6 -25 -56 -109 -56 -94 0 4 9 24 20 45 10 21 17 41 14 44 -5 5
35 126 54 164 21 41 43 96 39 99 -5 5 -91 -171 -106 -218 -12 -38 -31 -60 -31
-37 0 6 16 46 37 88 47 99 47 99 28 76 -29 -34 -64 -123 -84 -210 -10 -47 -15
-83 -11 -80 4 3 11 25 14 50 4 24 11 47 17 50 22 14 4 -53 -42 -151 -16 -34
-29 -65 -29 -69 0 -4 16 7 35 24 43 38 73 53 155 81 153 53 307 62 466 30 129
-26 228 -65 282 -108 52 -43 122 -129 122 -151 0 -9 -15 7 -34 35 -90 134
-243 199 -492 211 -148 7 -254 -7 -358 -47 -125 -48 -188 -99 -217 -173 -8
-23 -21 -41 -27 -40 -7 2 -12 -2 -12 -7 0 -6 -25 -10 -56 -10 -34 0 -53 4 -49
10 8 13 -4 50 -16 50 -5 0 -7 -13 -4 -30 3 -17 1 -30 -5 -30 -14 0 -13 43 2
75 13 28 31 35 21 8 -6 -16 -5 -16 11 -4 13 11 19 12 25 3 4 -8 19 -10 37 -6
26 5 30 10 31 42 1 65 21 237 31 262 18 50 23 82 12 75 -8 -5 -9 4 -5 28 4 19
8 48 10 64 6 48 21 98 57 185 19 46 45 110 58 143 32 86 88 194 122 238 16 20
26 37 21 37 -4 0 -24 -25 -43 -55 -19 -31 -45 -72 -58 -91 -29 -46 -48 -90
-82 -194 -42 -129 -89 -240 -100 -240 -4 0 -5 17 -3 38 2 20 5 60 7 87 4 82
23 169 61 295 12 41 28 94 35 117 7 23 19 44 26 47 17 6 18 -8 3 -36 -12 -22
-30 -78 -25 -78 2 0 31 47 64 104 34 57 69 106 77 110 13 4 14 2 5 -14 -5 -10
-15 -22 -20 -25 -11 -7 -52 -87 -47 -92 2 -2 24 21 48 49 24 29 55 62 69 73
13 11 46 39 72 62 25 22 60 44 77 48 17 4 31 11 31 16 0 19 27 8 38 -16z
m2327 -34 c19 -38 23 -55 16 -73 -9 -22 -10 -21 -10 7 -1 17 -10 45 -21 63
-19 31 -25 52 -15 52 2 0 16 -22 30 -49z m-2582 14 c-3 -9 -8 -14 -10 -11 -3
3 -2 9 2 15 9 16 15 13 8 -4z m-413 -40 c-10 -20 -23 -41 -28 -48 -5 -7 -22
-49 -36 -94 -15 -46 -31 -85 -36 -88 -13 -8 55 186 80 228 28 47 44 49 20 2z
m184 -7 c-25 -31 -84 -74 -84 -63 0 21 32 75 44 76 29 3 34 4 42 12 4 4 11 7
17 7 5 0 -4 -15 -19 -32z m206 28 c0 -2 -8 -10 -17 -17 -16 -13 -17 -12 -4 4
13 16 21 21 21 13z m-118 -48 c-7 -7 -12 -8 -12 -2 0 14 12 26 19 19 2 -3 -1
-11 -7 -17z m368 -13 c0 -8 -4 -15 -10 -15 -5 0 -7 7 -4 15 4 8 8 15 10 15 2
0 4 -7 4 -15z m-550 -5 c0 -5 -5 -10 -11 -10 -5 0 -7 5 -4 10 3 6 8 10 11 10
2 0 4 -4 4 -10z m508 -18 c-10 -2 -15 -9 -11 -18 3 -9 -1 -14 -12 -14 -9 0
-14 3 -12 8 2 4 7 15 10 24 4 12 12 15 24 11 16 -7 17 -8 1 -11z m-388 3 c0
-2 -10 -10 -22 -16 -21 -11 -22 -11 -9 4 13 16 31 23 31 12z m-150 -44 c-5
-11 -15 -23 -21 -27 -6 -3 -3 5 6 20 20 30 30 35 15 7z m140 5 c0 -3 -4 -8
-10 -11 -5 -3 -10 -1 -10 4 0 6 5 11 10 11 6 0 10 -2 10 -4z m22 -18 c-7 -7
-12 -8 -12 -2 0 14 12 26 19 19 2 -3 -1 -11 -7 -17z m378 2 c-8 -5 -17 -7 -19
-4 -3 3 1 9 9 14 8 5 17 7 19 4 3 -3 -1 -9 -9 -14z m2420 -26 c0 -8 -4 -12
-10 -9 -5 3 -10 10 -10 16 0 5 5 9 10 9 6 0 10 -7 10 -16z m-2510 -14 c0 -5
-5 -10 -11 -10 -5 0 -7 5 -4 10 3 6 8 10 11 10 2 0 4 -4 4 -10z m-434 -34
c-14 -41 -35 -68 -48 -60 -18 11 23 94 47 94 10 0 10 -7 1 -34z m504 20 c0 -3
-4 -8 -10 -11 -5 -3 -10 -1 -10 4 0 6 5 11 10 11 6 0 10 -2 10 -4z m146 -21
c-10 -8 -22 -12 -27 -10 -4 3 -10 1 -14 -5 -12 -20 -26 -10 -15 10 8 14 17 19
30 15 10 -3 21 -1 25 5 4 6 10 8 13 5 4 -4 -2 -13 -12 -20z m64 20 c0 -2 -9
-9 -20 -15 -12 -6 -20 -7 -20 -1 0 5 8 12 18 14 9 3 18 5 20 6 1 0 2 -1 2 -4z
m-300 -15 c0 -5 -4 -10 -10 -10 -5 0 -10 5 -10 10 0 6 5 10 10 10 6 0 10 -4
10 -10z m400 0 c0 -5 -4 -10 -10 -10 -5 0 -10 5 -10 10 0 6 5 10 10 10 6 0 10
-4 10 -10z m-782 -46 c-14 -29 -38 -44 -38 -24 0 16 44 73 48 61 2 -6 -3 -22
-10 -37z m432 36 c0 -5 -5 -10 -11 -10 -5 0 -7 5 -4 10 3 6 8 10 11 10 2 0 4
-4 4 -10z m47 -12 c-3 -8 -6 -5 -6 6 -1 11 2 17 5 13 3 -3 4 -12 1 -19z m263
13 c0 -6 -4 -13 -10 -16 -5 -3 -10 1 -10 9 0 9 5 16 10 16 6 0 10 -4 10 -9z
m55 -20 c-4 -15 0 -21 17 -24 19 -4 20 -4 3 -5 -11 -1 -26 2 -34 7 -12 8 -12
12 -2 25 18 21 24 20 16 -3z m-290 -20 c-3 -12 -11 -21 -16 -21 -6 0 -8 3 -6
8 2 4 7 16 11 26 9 25 20 13 11 -13z m115 20 c0 -5 -7 -12 -16 -15 -14 -5 -15
-4 -4 9 14 17 20 19 20 6z m-726 -33 c-2 -17 -14 -50 -27 -72 -13 -23 -32 -63
-41 -89 -10 -26 -29 -61 -42 -76 -13 -16 -24 -34 -24 -39 0 -19 -69 -148 -70
-130 0 25 37 181 51 211 7 15 16 24 20 21 5 -3 4 -15 -2 -27 -10 -21 -10 -21
5 -3 9 11 16 25 16 31 0 7 9 20 20 30 12 10 18 25 15 32 -4 13 34 99 58 131
16 21 25 13 21 -20z m-57 -8 c-7 -17 -13 -26 -15 -21 -3 10 15 51 22 51 3 0
-1 -14 -7 -30z m1053 0 c0 -6 -6 -10 -14 -10 -16 0 -38 24 -30 33 9 8 44 -11
44 -23z m-995 -79 c-15 -34 -31 -61 -35 -61 -4 0 6 29 23 65 39 81 48 78 12
-4z m160 37 c-9 -42 -44 -109 -45 -86 0 9 4 19 9 22 5 3 14 26 20 51 13 51 26
62 16 13z m-88 -7 c-3 -16 -22 -58 -41 -93 l-36 -63 4 40 c6 67 42 137 75 144
2 1 1 -12 -2 -28z m853 9 c0 -5 -4 -10 -10 -10 -5 0 -10 5 -10 10 0 6 5 10 10
10 6 0 10 -4 10 -10z m45 0 c3 -6 -1 -7 -9 -4 -18 7 -21 14 -7 14 6 0 13 -4
16 -10z m-1102 -25 c-3 -9 -8 -14 -10 -11 -3 3 -2 9 2 15 9 16 15 13 8 -4z
m1157 5 c0 -5 -2 -10 -4 -10 -3 0 -8 5 -11 10 -3 6 -1 10 4 10 6 0 11 -4 11
-10z m-1110 -4 c0 -3 -4 -8 -10 -11 -5 -3 -10 -1 -10 4 0 6 5 11 10 11 6 0 10
-2 10 -4z m950 0 c0 -2 -7 -9 -15 -16 -13 -11 -14 -10 -9 4 5 14 24 23 24 12z
m-416 -37 c-8 -14 -34 -11 -34 4 0 8 3 17 7 20 9 9 34 -13 27 -24z m55 18 c-2
-1 -12 -9 -22 -16 -15 -12 -17 -12 -11 3 3 9 13 16 22 16 8 0 13 -1 11 -3z
m355 -22 c-4 -8 -11 -15 -16 -15 -6 0 -5 6 2 15 7 8 14 15 16 15 2 0 1 -7 -2
-15z m-964 -13 c0 -11 -22 -32 -32 -32 -5 0 -4 9 2 20 11 20 30 28 30 12z
m172 -45 c-9 -26 -23 -47 -30 -47 -8 0 -12 3 -10 8 8 18 53 90 55 88 1 -1 -6
-23 -15 -49z m712 28 c-6 -16 -24 -21 -24 -7 0 11 11 22 21 22 5 0 6 -7 3 -15z
m-964 -52 c-11 -17 -11 -17 -6 0 3 10 6 24 7 30 0 9 2 9 5 0 3 -7 0 -20 -6
-30z m138 -12 c-7 -11 -19 -23 -26 -26 -8 -3 -4 8 8 26 24 33 39 34 18 0z
m133 -18 c-12 -20 -14 -14 -5 12 4 9 9 14 11 11 3 -2 0 -13 -6 -23z m571 5
c-7 -7 -12 -8 -12 -2 0 14 12 26 19 19 2 -3 -1 -11 -7 -17z m-524 -30 c-6 -18
-15 -37 -19 -42 -5 -6 -9 -21 -9 -33 0 -26 -28 -88 -37 -80 -2 3 0 14 5 24 5
10 13 36 17 58 6 35 40 105 50 105 2 0 -1 -15 -7 -32z m302 23 c0 -5 -9 -19
-20 -32 l-21 -24 16 33 c15 31 25 41 25 23z m-408 -33 c-7 -7 -12 -8 -12 -2 0
14 12 26 19 19 2 -3 -1 -11 -7 -17z m-157 -93 c-33 -89 -51 -121 -40 -70 8 32
61 155 68 155 2 0 -10 -38 -28 -85z m77 63 c-7 -7 -12 -26 -12 -44 0 -17 -6
-37 -14 -43 -7 -6 -17 -26 -22 -44 l-8 -32 -3 31 c-4 33 46 144 65 144 3 0 1
-5 -6 -12z m78 -8 c0 -5 -8 -10 -17 -10 -15 0 -16 2 -3 10 19 12 20 12 20 0z
m543 -18 c-7 -4 -17 -20 -23 -36 -6 -16 -13 -27 -16 -24 -2 3 0 18 6 34 11 29
30 47 39 38 3 -3 0 -8 -6 -12z m-613 -39 c-11 -17 -11 -17 -6 0 3 10 7 26 7
35 1 15 2 15 6 0 2 -10 -1 -25 -7 -35z m101 20 c-12 -20 -14 -14 -5 12 4 9 9
14 11 11 3 -2 0 -13 -6 -23z m749 17 c0 -5 -5 -10 -11 -10 -5 0 -7 5 -4 10 3
6 8 10 11 10 2 0 4 -4 4 -10z m46 -57 c-3 -10 -22 -37 -41 -58 -49 -55 -46
-52 -85 -82 -33 -26 -34 -26 -14 -3 12 14 25 36 29 50 7 24 105 124 113 115 2
-2 1 -12 -2 -22z m-241 -12 c-3 -12 -10 -21 -15 -21 -5 0 -4 11 2 25 13 29 23
26 13 -4z m96 6 c-10 -9 -11 -8 -5 6 3 10 9 15 12 12 3 -3 0 -11 -7 -18z
m-722 -33 c-17 -21 -21 -11 -8 22 10 23 13 25 16 11 3 -10 -1 -25 -8 -33z
m921 27 c-14 -27 -39 -51 -53 -51 -6 0 4 16 23 35 39 40 45 43 30 16z m-395
-48 c-12 -17 -20 -23 -23 -15 -4 14 28 56 36 47 3 -2 -3 -17 -13 -32z m125 33
c0 -2 -8 -10 -17 -17 -16 -13 -17 -12 -4 4 13 16 21 21 21 13z m114 -8 c-13
-23 -37 -48 -46 -48 -9 0 12 41 27 52 16 12 27 9 19 -4z m-652 -50 c-11 -24
-31 -69 -45 -100 -14 -32 -28 -58 -32 -58 -10 0 7 53 37 112 15 31 28 61 28
65 0 12 22 34 28 28 2 -2 -5 -23 -16 -47z m-32 4 c0 -5 -7 -17 -15 -28 -14
-18 -14 -17 -4 9 12 27 19 34 19 19z m-293 -24 c-3 -8 -6 -5 -6 6 -1 11 2 17
5 13 3 -3 4 -12 1 -19z m109 -4 c-4 -9 -9 -15 -11 -12 -3 3 -3 13 1 22 4 9 9
15 11 12 3 -3 3 -13 -1 -22z m35 -1 c-8 -15 -10 -15 -11 -2 0 17 10 32 18 25
2 -3 -1 -13 -7 -23z m534 -2 c-14 -29 -35 -49 -35 -36 0 9 40 65 46 65 2 0 -2
-13 -11 -29z m109 15 c-3 -8 -12 -17 -20 -20 -11 -4 -12 -2 -1 14 14 23 29 27
21 6z m47 -4 c-12 -23 -41 -48 -41 -35 0 5 7 19 16 31 19 27 39 30 25 4z m69
-2 c-6 -11 -13 -20 -16 -20 -2 0 0 9 6 20 6 11 13 20 16 20 2 0 0 -9 -6 -20z
m130 -20 c-37 -28 -50 -24 -15 4 17 13 32 22 35 19 3 -2 -6 -13 -20 -23z m74
5 c-29 -22 -42 -17 -15 6 13 11 26 17 29 14 3 -3 -3 -12 -14 -20z m-188 -13
c-18 -16 -18 -16 -6 6 6 13 14 21 18 18 3 -4 -2 -14 -12 -24z m-880 -36 c-8
-20 -18 -36 -21 -36 -3 0 2 16 10 36 8 20 15 39 15 42 0 3 3 3 6 0 3 -3 -2
-22 -10 -42z m788 19 c-9 -14 -19 -24 -21 -21 -6 6 20 46 30 46 4 0 0 -11 -9
-25z m-100 -10 c-14 -22 -36 -36 -99 -63 -5 -3 3 7 19 21 16 14 34 23 41 21 7
-3 20 6 29 20 9 15 19 26 21 26 3 0 -2 -11 -11 -25z m38 -7 c-7 -7 -12 -8 -12
-2 0 14 12 26 19 19 2 -3 -1 -11 -7 -17z m-712 -65 c-14 -41 -24 -97 -26 -141
-3 -95 -14 -107 -14 -16 0 49 8 93 27 151 15 45 29 80 31 78 3 -3 -5 -35 -18
-72z m106 -5 c-6 -29 -12 -44 -14 -34 -5 25 7 86 17 86 4 0 3 -23 -3 -52z
m584 48 c0 -2 -7 -7 -16 -10 -8 -3 -12 -2 -9 4 6 10 25 14 25 6z m40 0 c0 -3
-4 -8 -10 -11 -5 -3 -10 -1 -10 4 0 6 5 11 10 11 6 0 10 -2 10 -4z m-105 -36
c-3 -5 -12 -10 -18 -10 -7 0 -6 4 3 10 19 12 23 12 15 0z m48 -15 c-3 -9 -8
-14 -10 -11 -3 3 -2 9 2 15 9 16 15 13 8 -4z m-132 -18 c-10 -9 -11 -8 -5 6 3
10 9 15 12 12 3 -3 0 -11 -7 -18z m279 8 c0 -2 -10 -9 -22 -15 -22 -11 -22
-10 -4 4 21 17 26 19 26 11z m-181 -8 c-2 -1 -12 -9 -22 -16 -15 -12 -17 -12
-11 3 3 9 13 16 22 16 8 0 13 -1 11 -3z m2379 -82 c7 -25 12 -55 12 -68 -1
-22 -1 -21 -14 3 -16 31 -29 110 -18 110 4 0 13 -20 20 -45z m-2508 -5 c-6
-11 -13 -20 -16 -20 -2 0 0 9 6 20 6 11 13 20 16 20 2 0 0 -9 -6 -20z m2282
-35 c87 -18 171 -45 164 -52 -3 -3 -45 5 -93 18 -121 31 -360 32 -473 1 -111
-30 -185 -67 -240 -118 -76 -71 -115 -145 -130 -249 l-7 -50 -2 48 c-1 55 47
171 99 237 68 85 187 137 400 173 61 10 215 6 282 -8z m-2232 -19 c0 -2 -9 -6
-20 -9 -11 -3 -20 -1 -20 4 0 5 9 9 20 9 11 0 20 -2 20 -4z m2195 -26 c6 -5
33 -11 60 -15 81 -11 85 -13 84 -48 0 -18 -3 -26 -6 -19 -2 6 -9 12 -14 12 -6
0 -7 -6 -3 -12 7 -11 -33 17 -46 33 -7 9 -60 17 -60 10 0 -4 12 -14 28 -24
l27 -18 -58 4 c-64 5 -97 24 -59 33 12 4 22 10 22 15 0 12 -7 11 -32 -2 -16
-9 -29 -7 -61 7 l-40 18 29 13 c29 12 109 8 129 -7z m-1975 -4 c0 -2 -16 -6
-35 -8 -19 -2 -35 0 -35 4 0 4 16 8 35 8 19 0 35 -2 35 -4z m245 -16 c8 -12
-12 -50 -27 -50 -7 0 -7 4 1 14 6 7 9 21 5 30 -7 17 11 23 21 6z m1994 -5 c32
-16 111 -101 111 -119 0 -6 -24 14 -53 44 -29 30 -64 63 -77 72 -31 21 -19 23
19 3z m-1884 -12 c39 -9 79 -22 89 -29 17 -12 12 -13 -35 -7 -29 4 -76 7 -102
6 -27 0 -44 3 -37 7 9 5 9 9 1 14 -15 10 -14 26 2 26 6 0 44 -7 82 -17z m1475
-18 c23 -13 23 -14 5 -16 -20 -2 -56 -2 -87 0 -10 1 -18 5 -18 10 0 22 66 25
100 6z m-123 -1 c-3 -3 -12 -4 -19 -1 -8 3 -5 6 6 6 11 1 17 -2 13 -5z m457
-9 c3 -9 0 -15 -9 -15 -9 0 -12 6 -9 15 4 8 7 15 9 15 2 0 5 -7 9 -15z m64
-24 c3 -8 -1 -12 -9 -9 -7 2 -15 10 -17 17 -3 8 1 12 9 9 7 -2 15 -10 17 -17z
m-1348 -5 c-52 -15 -138 -54 -146 -67 -3 -5 -17 -9 -30 -9 -34 0 -26 22 12 34
16 5 56 20 89 32 33 13 74 23 90 23 26 -1 24 -2 -15 -13z m266 -22 c33 -13 68
-24 76 -24 9 0 19 -7 22 -16 5 -14 1 -16 -25 -10 -17 3 -52 17 -79 30 -26 13
-73 29 -104 36 -31 6 -56 14 -56 17 0 12 108 -9 166 -33z m-886 4 c0 -6 -6 -5
-15 2 -8 7 -15 14 -15 16 0 2 7 1 15 -2 8 -4 15 -11 15 -16z m60 -8 c0 -11 -5
-20 -12 -20 -6 0 -8 3 -5 7 4 3 -1 12 -11 19 -16 12 -15 13 6 14 15 0 22 -6
22 -20z m1357 14 c-3 -3 -12 -4 -19 -1 -8 3 -5 6 6 6 11 1 17 -2 13 -5z m33
-4 c0 -5 -4 -10 -10 -10 -5 0 -10 5 -10 10 0 6 5 10 10 10 6 0 10 -4 10 -10z
m100 0 c0 -5 -8 -10 -17 -10 -15 0 -16 2 -3 10 19 12 20 12 20 0z m387 -16 c2
-10 0 -13 -3 -6 -3 6 -10 10 -15 6 -5 -3 -9 2 -9 11 0 23 24 13 27 -11z
m-1704 -20 c-3 -8 -7 -14 -10 -14 -3 0 -3 7 1 15 3 8 1 15 -4 15 -6 0 -10 5
-10 11 0 8 4 8 14 -1 8 -6 12 -18 9 -26z m1367 29 c0 -5 -5 -15 -10 -23 -7
-12 -9 -10 -7 8 1 19 17 33 17 15z m50 3 c0 -3 -4 -8 -10 -11 -5 -3 -10 -1
-10 4 0 6 5 11 10 11 6 0 10 -2 10 -4z m46 -12 c-3 -9 -6 -18 -6 -20 0 -2 -4
-4 -9 -4 -5 0 -7 9 -4 20 3 11 10 20 15 20 6 0 7 -7 4 -16z m144 -3 c0 -5 -7
-11 -15 -15 -15 -5 -20 5 -8 17 9 10 23 9 23 -2z m-45 -11 c3 -6 -4 -10 -17
-10 -13 0 -31 -7 -41 -14 -15 -11 -16 -18 -7 -42 14 -36 -2 -20 -18 19 -7 16
-8 26 -3 23 5 -3 14 1 21 9 11 13 10 14 -5 9 -13 -5 -16 -4 -11 4 9 15 72 16
81 2z m115 -24 c-1 -20 -1 -20 -15 4 -8 14 -14 19 -15 11 0 -8 -3 -12 -6 -8
-3 3 -3 10 0 16 11 17 36 1 36 -23z m-2247 -10 c-3 -4 -9 -2 -14 5 -13 22 -11
31 5 17 8 -7 12 -17 9 -22z m536 8 c3 -16 1 -17 -13 -5 -19 16 -21 34 -3 29 6
-3 14 -13 16 -24z m99 13 c7 -8 7 -18 2 -27 -11 -17 -19 -11 -25 19 -4 24 7
28 23 8z m1708 -10 c-4 7 1 11 13 10 15 -1 17 -4 7 -19 -13 -22 -32 -23 -40
-2 -11 29 -6 38 10 18 8 -10 13 -14 10 -7z m-3015 -4 c13 -16 12 -17 -3 -4
-10 7 -18 15 -18 17 0 8 8 3 21 -13z m2199 7 c0 -5 -2 -10 -4 -10 -3 0 -8 5
-11 10 -3 6 -1 10 4 10 6 0 11 -4 11 -10z m790 -39 c-1 -10 -6 -7 -15 9 -19
33 -18 50 0 26 8 -11 15 -27 15 -35z m-107 -15 c-5 -7 -9 -4 -11 9 -2 11 -7
25 -11 30 -3 6 2 2 11 -8 10 -11 15 -24 11 -31z m242 44 c3 -5 1 -10 -4 -10
-6 0 -11 5 -11 10 0 6 2 10 4 10 3 0 8 -4 11 -10z m70 0 c3 -5 17 -10 31 -10
41 0 31 -35 -16 -50 -27 -9 -40 -19 -40 -31 0 -10 -6 -21 -12 -25 -7 -4 -10
-4 -6 0 4 5 -2 23 -13 42 -25 45 -24 57 4 51 12 -4 29 -2 37 3 12 8 9 10 -12
10 -16 0 -28 5 -28 10 0 6 11 10 24 10 14 0 28 -4 31 -10z m-611 -21 c-6 -11
-24 -2 -24 11 0 5 7 7 15 4 8 -4 12 -10 9 -15z m380 5 c4 -10 1 -14 -6 -12
-15 5 -23 28 -10 28 5 0 13 -7 16 -16z m125 -15 c14 -42 14 -47 -3 -24 -13 18
-14 18 -20 -3 -8 -24 -14 -26 -35 -13 -7 5 -10 14 -7 20 4 6 12 9 17 6 5 -4 9
2 9 13 0 42 24 42 39 1z m-2755 -17 c-19 -39 -27 -42 -13 -6 12 34 20 46 25
41 2 -2 -3 -18 -12 -35z m1014 13 c-3 -3 -9 2 -12 12 -6 14 -5 15 5 6 7 -7 10
-15 7 -18z m1279 3 c-3 -8 -6 -5 -6 6 -1 11 2 17 5 13 3 -3 4 -12 1 -19z m228
12 c3 -5 1 -10 -4 -10 -6 0 -11 5 -11 10 0 6 2 10 4 10 3 0 8 -4 11 -10z
m-1728 -22 c-3 -8 -6 -5 -6 6 -1 11 2 17 5 13 3 -3 4 -12 1 -19z m862 -9 c1 8
3 12 6 10 4 -5 -22 -90 -30 -98 -4 -3 1 91 5 114 1 6 6 -1 10 -15 4 -14 8 -19
9 -11z m751 -63 c0 -6 -9 6 -20 27 -11 20 -20 42 -20 49 0 7 9 -5 20 -27 11
-22 20 -44 20 -49z m-2700 -5 c17 -40 29 -75 27 -78 -7 -7 -67 118 -67 140 0
29 5 21 40 -62z m320 59 c0 -11 -4 -20 -9 -20 -5 0 -7 9 -4 20 3 11 7 20 9 20
2 0 4 -9 4 -20z m870 0 c0 -5 -2 -10 -4 -10 -3 0 -8 5 -11 10 -3 6 -1 10 4 10
6 0 11 -4 11 -10z m1360 1 c0 -6 -4 -13 -10 -16 -5 -3 -10 1 -10 9 0 9 5 16
10 16 6 0 10 -4 10 -9z m250 5 c0 -3 -4 -8 -10 -11 -5 -3 -10 -1 -10 4 0 6 5
11 10 11 6 0 10 -2 10 -4z m-1560 -16 c0 -5 -5 -10 -11 -10 -5 0 -7 5 -4 10 3
6 8 10 11 10 2 0 4 -4 4 -10z m50 -16 c0 -8 -4 -12 -10 -9 -5 3 -10 13 -10 21
0 8 5 12 10 9 6 -3 10 -13 10 -21z m60 -19 c6 -19 10 -41 7 -48 -2 -6 -8 5
-12 26 -4 20 -11 40 -16 43 -5 3 -9 10 -9 15 0 21 19 -2 30 -36z m73 38 c3 -5
8 -24 12 -43 6 -31 5 -33 -8 -20 -18 18 -31 70 -18 70 5 0 12 -3 14 -7z m-669
-18 c-4 -8 -8 -15 -10 -15 -2 0 -4 7 -4 15 0 8 4 15 10 15 5 0 7 -7 4 -15z
m49 0 c-3 -9 -8 -14 -10 -11 -3 3 -2 9 2 15 9 16 15 13 8 -4z m267 5 c0 -5 -4
-10 -10 -10 -5 0 -10 5 -10 10 0 6 5 10 10 10 6 0 10 -4 10 -10z m570 -10 c0
-11 6 -23 13 -26 8 -3 13 -20 13 -43 -1 -22 -4 -37 -8 -34 -5 2 -8 -12 -8 -32
0 -52 -23 -56 -71 -9 -42 41 -47 55 -24 74 8 7 15 20 15 29 0 26 29 61 51 61
12 0 19 -7 19 -20z m780 8 c0 -4 -4 -8 -9 -8 -6 0 -12 4 -15 8 -3 5 1 9 9 9 8
0 15 -4 15 -9z m235 2 c3 -5 1 -18 -4 -27 -10 -17 -10 -17 -11 0 0 9 -4 17
-10 17 -5 0 -10 5 -10 10 0 13 27 13 35 0z m85 -34 c-1 -20 -2 -20 -15 4 -19
33 -19 46 0 30 8 -7 15 -22 15 -34z m100 13 c6 -10 7 -19 2 -19 -5 0 -14 12
-20 26 -14 29 2 24 18 -7z m-1143 2 c10 -16 9 -24 -8 -43 -20 -23 -20 -23 -14
-1 3 12 1 24 -5 28 -14 9 -13 35 3 35 7 0 18 -9 24 -19z m1193 -2 c0 -5 -4 -9
-10 -9 -5 0 -10 7 -10 16 0 8 5 12 10 9 6 -3 10 -10 10 -16z m110 11 c0 -5 -5
-10 -11 -10 -5 0 -7 5 -4 10 3 6 8 10 11 10 2 0 4 -4 4 -10z m79 -30 c0 -10
-3 -8 -9 5 -12 27 -12 43 0 25 5 -8 9 -22 9 -30z m-2049 22 c0 -5 -7 -9 -15
-9 -8 0 -15 4 -15 9 0 4 7 8 15 8 8 0 15 -4 15 -8z m1338 1 c-10 -2 -28 -2
-40 0 -13 2 -5 4 17 4 22 1 32 -1 23 -4z m-2088 -7 c0 -3 -4 -8 -10 -11 -5 -3
-10 -1 -10 4 0 6 5 11 10 11 6 0 10 -2 10 -4z m364 -4 c3 -5 -8 -6 -25 -4 -16
2 -29 6 -29 8 0 8 49 4 54 -4z m590 -8 c3 -8 2 -12 -4 -9 -6 3 -10 10 -10 16
0 14 7 11 14 -7z m23 -6 c-3 -8 -6 -5 -6 6 -1 11 2 17 5 13 3 -3 4 -12 1 -19z
m72 -28 c0 -9 -4 -8 -9 5 -5 11 -9 27 -9 35 0 9 4 8 9 -5 5 -11 9 -27 9 -35z
m1291 34 c0 -8 -5 -12 -10 -9 -6 4 -8 11 -5 16 9 14 15 11 15 -7z m166 -4 c5
1 10 -4 12 -12 3 -11 2 -11 -6 0 -5 8 -13 13 -18 12 -5 -1 -10 4 -12 12 -3 11
-2 11 6 0 5 -8 13 -13 18 -12z m-2616 -2 c-1 -30 -27 -101 -34 -90 -4 6 -2 20
4 31 5 11 10 31 10 45 0 14 5 26 10 26 6 0 10 -6 10 -12z m610 2 c17 0 21 -3
13 -11 -7 -7 -24 -6 -59 5 -38 13 -41 15 -14 11 19 -3 46 -5 60 -5z m1374 -11
c-4 -7 0 -9 14 -5 11 4 23 2 27 -4 7 -11 -24 -14 -49 -4 -21 8 -21 24 0 24 8
0 12 -5 8 -11z m336 -9 c0 -5 -4 -10 -10 -10 -5 0 -10 5 -10 10 0 6 5 10 10
10 6 0 10 -4 10 -10z m-2210 -4 c0 -3 -4 -8 -10 -11 -5 -3 -10 -1 -10 4 0 6 5
11 10 11 6 0 10 -2 10 -4z m-2 -42 c-19 -32 -20 -37 -5 -31 22 8 23 -16 2 -37
-19 -19 -19 -30 0 -22 12 4 14 -2 10 -30 -2 -21 0 -32 5 -29 13 8 13 -16 0
-35 -9 -13 -10 -13 -11 0 0 10 -3 8 -8 -5 -8 -19 -8 -19 -20 4 -20 37 -6 166
21 201 31 37 34 31 6 -16z m348 31 c-22 -17 -36 -19 -36 -7 0 14 12 22 34 22
21 -1 21 -1 2 -15z m241 9 c-3 -3 -12 -4 -19 -1 -8 3 -5 6 6 6 11 1 17 -2 13
-5z m1124 -37 c-9 -9 -10 -5 -7 13 6 36 8 37 13 16 3 -10 0 -23 -6 -29z m455
-10 c-10 -17 -11 -16 -14 3 -2 12 0 29 3 38 6 15 8 15 15 -3 4 -11 2 -28 -4
-38z m329 -26 c4 -14 3 -21 -3 -17 -5 3 -12 18 -15 33 -3 16 -8 37 -11 48 -4
11 0 7 8 -10 7 -16 17 -41 21 -54z m96 57 c11 -20 10 -22 -3 -10 -13 10 -17
10 -20 0 -3 -8 -7 -6 -11 6 -4 10 -3 15 3 11 6 -3 10 -1 10 4 0 17 8 13 21
-11z m109 -13 c0 -5 -5 -3 -10 5 -5 8 -10 20 -10 25 0 6 5 3 10 -5 5 -8 10
-19 10 -25z m-2014 -3 c-9 -9 -37 8 -31 18 5 8 11 7 21 -1 8 -6 12 -14 10 -17z
m244 18 c0 -5 -5 -10 -11 -10 -5 0 -7 5 -4 10 3 6 8 10 11 10 2 0 4 -4 4 -10z
m57 -12 c-3 -8 -6 -5 -6 6 -1 11 2 17 5 13 3 -3 4 -12 1 -19z m163 -38 c0 -71
-15 -70 -17 1 -1 36 2 57 7 54 6 -4 10 -28 10 -55z m328 35 c-3 -3 -9 2 -12
12 -6 14 -5 15 5 6 7 -7 10 -15 7 -18z m842 15 c0 -5 -2 -10 -4 -10 -3 0 -8 5
-11 10 -3 6 -1 10 4 10 6 0 11 -4 11 -10z m98 -8 c2 -7 -2 -10 -12 -6 -9 3
-16 11 -16 16 0 13 23 5 28 -10z m358 -27 c9 -39 0 -30 -15 15 -6 19 -7 30 -2
25 5 -6 13 -23 17 -40z m42 -20 c2 -36 -2 -74 -8 -85 -7 -14 -7 -20 0 -20 5 0
10 -4 10 -10 0 -5 -7 -10 -15 -10 -8 0 -15 -7 -15 -15 0 -8 -5 -15 -11 -15 -6
0 -9 7 -5 15 3 8 0 15 -7 15 -15 0 -38 68 -26 76 5 3 18 2 29 -1 23 -7 34 24
27 73 -5 29 -1 42 13 42 3 0 7 -29 8 -65z m-2332 33 c-22 -5 -45 -13 -53 -19
-8 -7 -13 -7 -13 -2 0 14 72 41 90 34 9 -3 -2 -9 -24 -13z m-406 8 c0 -3 -4
-8 -10 -11 -5 -3 -10 -1 -10 4 0 6 5 11 10 11 6 0 10 -2 10 -4z m143 -3 c-7
-2 -21 -2 -30 0 -10 3 -4 5 12 5 17 0 24 -2 18 -5z m137 3 c0 -2 -8 -10 -17
-17 -16 -13 -17 -12 -4 4 13 16 21 21 21 13z m733 -34 c4 -21 3 -31 -3 -27 -6
3 -10 20 -10 37 0 38 5 34 13 -10z m727 28 c0 -5 -4 -10 -10 -10 -5 0 -10 5
-10 10 0 6 5 10 10 10 6 0 10 -4 10 -10z m110 -19 c0 -40 -18 -49 -30 -15 -8
21 -8 29 2 36 22 13 28 9 28 -21z m-1616 -5 c-3 -9 -10 -16 -15 -16 -6 0 -5 9
1 21 13 24 24 20 14 -5z m264 18 c33 -9 27 -19 -13 -21 -33 -3 -44 5 -28 20 8
8 12 8 41 1z m1762 -34 c0 -13 -1 -13 -10 0 -5 8 -10 22 -10 30 0 13 1 13 10
0 5 -8 10 -22 10 -30z m314 31 c3 -5 -1 -11 -9 -14 -9 -4 -12 -1 -8 9 6 16 10
17 17 5z m-2404 -5 c0 -2 -7 -9 -15 -16 -13 -11 -14 -10 -9 4 5 14 24 23 24
12z m690 0 c0 -3 -4 -8 -10 -11 -5 -3 -10 -1 -10 4 0 6 5 11 10 11 6 0 10 -2
10 -4z m30 -11 c0 -8 -2 -15 -4 -15 -2 0 -6 7 -10 15 -3 8 -1 15 4 15 6 0 10
-7 10 -15z m262 -7 c-7 -7 -12 -8 -12 -2 0 6 3 14 7 17 3 4 9 5 12 2 2 -3 -1
-11 -7 -17z m-1071 -11 c-10 -9 -11 -8 -5 6 3 10 9 15 12 12 3 -3 0 -11 -7
-18z m523 7 c8 -22 7 -87 -2 -99 -11 -16 -52 -36 -52 -26 0 4 9 20 20 34 l20
26 -20 6 c-29 9 -25 27 5 19 28 -7 33 7 10 29 -8 8 -11 17 -8 21 11 10 21 7
27 -10z m405 -57 c14 -18 5 -26 -20 -20 -13 4 -18 11 -15 20 3 8 6 29 7 46 l1
32 8 -32 c4 -18 12 -39 19 -46z m-1319 35 c0 -15 -2 -15 -10 -2 -13 20 -13 33
0 25 6 -3 10 -14 10 -23z m270 8 c0 -11 -4 -20 -9 -20 -5 0 -7 9 -4 20 3 11 7
20 9 20 2 0 4 -9 4 -20z m420 5 c-33 -19 -49 -19 -24 0 10 8 26 14 34 14 9 0
4 -6 -10 -14z m945 -15 c-4 -12 -9 -19 -12 -17 -3 3 -2 15 2 27 4 12 9 19 12
17 3 -3 2 -15 -2 -27z m414 26 c-2 -2 -15 -9 -29 -16 -23 -12 -24 -12 -11 3 7
10 20 17 29 17 8 0 13 -2 11 -4z m358 -18 c-3 -8 -6 -5 -6 6 -1 11 2 17 5 13
3 -3 4 -12 1 -19z m141 -3 c-3 -3 -9 2 -12 12 -6 14 -5 15 5 6 7 -7 10 -15 7
-18z m-1373 6 c3 -5 1 -12 -5 -16 -5 -3 -10 1 -10 9 0 18 6 21 15 7z m1495 -1
c0 -5 -4 -10 -10 -10 -5 0 -10 5 -10 10 0 6 5 10 10 10 6 0 10 -4 10 -10z
m-2580 -10 c0 -5 -5 -10 -11 -10 -5 0 -7 5 -4 10 3 6 8 10 11 10 2 0 4 -4 4
-10z m360 0 c0 -5 -5 -10 -11 -10 -5 0 -7 5 -4 10 3 6 8 10 11 10 2 0 4 -4 4
-10z m120 1 c0 -13 -29 -35 -37 -27 -3 3 -1 6 5 6 7 0 12 7 12 15 0 8 5 15 10
15 6 0 10 -4 10 -9z m40 -1 c0 -5 -4 -10 -10 -10 -5 0 -10 5 -10 10 0 6 5 10
10 10 6 0 10 -4 10 -10z m175 0 c-28 -12 -37 -12 -30 0 3 6 16 10 28 9 21 0
21 -1 2 -9z m746 -28 c8 -15 20 -33 27 -40 8 -9 10 -26 6 -48 -4 -21 -2 -40 6
-49 8 -9 8 -15 2 -15 -6 0 -32 32 -58 71 -42 64 -45 73 -34 94 15 28 32 24 51
-13z m434 28 c4 -6 -6 -10 -22 -10 -22 0 -25 2 -13 10 19 12 27 12 35 0z m155
6 c0 -3 -4 -8 -10 -11 -5 -3 -10 -1 -10 4 0 6 5 11 10 11 6 0 10 -2 10 -4z
m695 -6 c3 -5 1 -10 -4 -10 -6 0 -11 5 -11 10 0 6 2 10 4 10 3 0 8 -4 11 -10z
m-2500 -10 c-3 -5 -12 -10 -18 -10 -7 0 -6 4 3 10 19 12 23 12 15 0z m378 -7
c-5 -12 -2 -15 10 -10 21 8 21 3 1 -18 -13 -12 -19 -13 -30 -4 -12 10 -12 15
2 30 21 23 25 24 17 2z m134 -18 c-10 -7 -27 -11 -38 -8 -19 5 -18 7 8 24 33
22 61 7 30 -16z m2069 10 c3 -13 4 -30 1 -37 -3 -7 -6 -1 -6 14 -1 15 -6 30
-13 34 -8 5 -9 0 -6 -14 4 -12 2 -20 -3 -16 -5 3 -9 14 -9 25 0 28 28 23 36
-6z m-848 -21 c-3 -14 -5 -12 -10 9 -3 19 -2 25 4 19 6 -6 8 -18 6 -28z m112
16 c0 -11 -6 -20 -14 -20 -21 0 -31 21 -15 31 22 14 29 11 29 -11z m599 -50
c0 -23 -15 7 -22 45 l-6 30 14 -30 c8 -16 14 -37 14 -45z m-2660 -17 c-1 -70
-2 -74 -9 -33 -7 41 -3 110 6 110 2 0 3 -35 3 -77z m473 55 c-7 -7 -12 -8 -12
-2 0 14 12 26 19 19 2 -3 -1 -11 -7 -17z m1448 0 c0 -19 -2 -20 -10 -8 -13 19
-13 30 0 30 6 0 10 -10 10 -22z m382 0 c-7 -7 -12 -8 -12 -2 0 6 3 14 7 17 3
4 9 5 12 2 2 -3 -1 -11 -7 -17z m134 4 c1 -7 0 -8 -3 -2 -2 5 -9 8 -14 4 -5
-3 -9 0 -9 6 0 15 23 7 26 -8z m-2526 -8 c0 -8 -5 -12 -10 -9 -6 4 -8 11 -5
16 9 14 15 11 15 -7z m260 12 c0 -3 -4 -8 -10 -11 -5 -3 -10 -1 -10 4 0 6 5
11 10 11 6 0 10 -2 10 -4z m895 -6 c-3 -5 -11 -10 -16 -10 -6 0 -7 5 -4 10 3
6 11 10 16 10 6 0 7 -4 4 -10z m811 -77 c-4 -4 -36 73 -35 85 0 4 9 -13 20
-37 11 -24 18 -46 15 -48z m-1386 52 c-7 -8 -17 -15 -23 -15 -6 0 -2 8 9 19
22 21 33 19 14 -4z m31 2 c-10 -9 -11 -8 -5 6 3 10 9 15 12 12 3 -3 0 -11 -7
-18z m1869 13 c0 -5 -5 -10 -11 -10 -5 0 -7 5 -4 10 3 6 8 10 11 10 2 0 4 -4
4 -10z m239 -21 c9 -27 9 -30 -4 -19 -8 7 -15 21 -15 31 0 28 7 23 19 -12z
m240 -44 c-1 -29 -1 -29 -8 -5 -4 14 -11 39 -14 55 l-7 30 15 -25 c8 -14 14
-38 14 -55z m-2539 55 c0 -5 -4 -10 -10 -10 -5 0 -10 5 -10 10 0 6 5 10 10 10
6 0 10 -4 10 -10z m1001 -17 c-12 -20 -14 -14 -5 12 4 9 9 14 11 11 3 -2 0
-13 -6 -23z m-1151 13 c0 -3 -4 -8 -10 -11 -5 -3 -10 -1 -10 4 0 6 5 11 10 11
6 0 10 -2 10 -4z m67 -28 c-3 -7 -5 -2 -5 12 0 14 2 19 5 13 2 -7 2 -19 0 -25z
m823 -14 c0 -18 4 -22 16 -17 14 5 16 1 12 -23 -3 -16 -9 -38 -13 -49 -4 -11
3 -4 16 15 17 26 24 31 27 18 4 -19 -29 -88 -52 -107 -14 -11 -16 -11 -16 5 0
15 -8 19 -43 21 -85 3 -117 7 -117 15 0 11 14 15 82 23 l57 6 -6 44 c-3 24 -3
56 1 70 6 22 9 25 21 15 8 -7 15 -23 15 -36z m1650 42 c0 -3 -4 -8 -10 -11 -5
-3 -10 -1 -10 4 0 6 5 11 10 11 6 0 10 -2 10 -4z m125 -35 c4 -15 3 -21 -3
-17 -5 3 -12 17 -15 32 -5 30 8 20 18 -15z m-2232 -3 c-2 -4 -10 -2 -17 5 -8
6 -12 15 -9 19 2 4 10 2 17 -5 8 -6 12 -15 9 -19z m57 22 c0 -5 -4 -10 -10
-10 -5 0 -10 5 -10 10 0 6 5 10 10 10 6 0 10 -4 10 -10z m545 -11 c0 -8 -5
-13 -12 -12 -7 2 -18 -7 -24 -20 -9 -18 -9 -20 2 -9 19 18 32 15 24 -5 -7 -18
-13 -41 -14 -56 -1 -5 -5 -5 -11 -2 -5 3 -11 -4 -11 -17 -3 -59 -10 -93 -23
-107 -7 -9 -17 -27 -21 -41 -4 -14 -17 -38 -28 -54 l-20 -28 -13 23 c-7 13
-13 18 -14 12 0 -7 -4 -13 -10 -13 -5 0 -2 19 6 42 11 33 12 43 2 50 -8 5 -1
8 20 8 23 0 32 -4 32 -17 0 -14 3 -14 20 5 26 27 25 30 -5 24 -18 -3 -25 0
-25 10 0 23 63 127 78 128 6 0 12 5 12 11 0 5 -5 7 -12 3 -14 -9 -3 53 14 73
13 16 33 12 33 -8z m742 -1 c-3 -8 -6 -5 -6 6 -1 11 2 17 5 13 3 -3 4 -12 1
-19z m102 -33 c-1 -14 -2 -16 -6 -5 -3 8 -10 18 -16 21 -5 4 -7 15 -2 25 7 18
8 18 15 -1 5 -11 9 -29 9 -40z m267 -12 c17 -43 17 -46 -1 -76 -10 -18 -23
-35 -29 -39 -11 -7 -89 -1 -116 9 -8 4 -21 5 -29 4 -7 -1 -11 4 -9 11 3 9 28
14 74 16 l70 3 -4 72 c-4 64 -3 70 11 58 9 -7 24 -33 33 -58z m-1986 46 c0 -8
4 -8 15 1 14 11 35 6 35 -8 -1 -17 -40 -53 -51 -47 -8 6 -7 10 2 16 11 7 10 9
-3 9 -10 0 -18 5 -18 11 0 6 -9 8 -22 4 -22 -6 -22 -6 -4 9 23 19 46 21 46 5z
m182 -11 c-7 -7 -12 -8 -12 -2 0 14 12 26 19 19 2 -3 -1 -11 -7 -17z m2303
-37 c3 -6 2 -11 -3 -11 -12 0 -33 56 -24 65 4 3 10 -5 13 -19 4 -13 10 -29 14
-35z m-2639 24 c-2 -7 1 -18 7 -24 8 -8 8 -11 -1 -11 -7 0 -12 3 -13 8 0 4 -2
17 -5 30 -3 15 0 21 7 17 6 -4 8 -13 5 -20z m299 15 c-3 -5 -12 -10 -18 -10
-7 0 -6 4 3 10 19 12 23 12 15 0z m877 -51 c-12 -30 -25 -8 -16 27 5 21 9 23
15 11 5 -8 5 -25 1 -38z m1150 29 c-7 -7 -12 -8 -12 -2 0 6 3 14 7 17 3 4 9 5
12 2 2 -3 -1 -11 -7 -17z m55 16 c-3 -3 -12 -4 -19 -1 -8 3 -5 6 6 6 11 1 17
-2 13 -5z m-2310 -36 c-3 -7 -5 -2 -5 12 0 14 2 19 5 13 2 -7 2 -19 0 -25z
m563 13 c0 -3 -4 -12 -9 -19 -6 -10 -10 -7 -13 11 -4 18 -1 24 9 20 7 -3 13
-8 13 -12z m424 -69 c-21 -68 -69 -168 -86 -178 -7 -4 -3 8 8 27 28 47 84 192
85 221 1 18 2 19 6 5 3 -10 -3 -43 -13 -75z m1136 78 c0 -5 -4 -10 -9 -10 -6
0 -13 5 -16 10 -3 6 1 10 9 10 9 0 16 -4 16 -10z m30 0 c0 -5 -4 -10 -10 -10
-5 0 -10 5 -10 10 0 6 5 10 10 10 6 0 10 -4 10 -10z m279 -24 c-3 -3 -11 5
-18 17 -13 21 -12 21 5 5 10 -10 16 -20 13 -22z m87 -3 c-11 -11 -19 6 -11 24
8 17 8 17 12 0 3 -10 2 -21 -1 -24z m171 0 c-3 -10 -5 -4 -5 12 0 17 2 24 5
18 2 -7 2 -21 0 -30z m-2634 8 c5 -22 -1 -33 -14 -25 -12 7 -12 44 0 44 5 0
11 -9 14 -19z m2148 6 c-1 -12 -15 -9 -19 4 -3 6 1 10 8 8 6 -3 11 -8 11 -12z
m-1881 -1 c0 -3 -4 -8 -10 -11 -5 -3 -10 -1 -10 4 0 6 5 11 10 11 6 0 10 -2
10 -4z m2535 -6 c3 -5 1 -10 -4 -10 -6 0 -11 5 -11 10 0 6 2 10 4 10 3 0 8 -4
11 -10z m-2575 -10 c0 -5 -12 -10 -27 -9 -25 0 -26 1 -8 9 27 12 35 12 35 0z
m-380 -16 c0 -8 -4 -12 -10 -9 -5 3 -10 10 -10 16 0 5 5 9 10 9 6 0 10 -7 10
-16z m616 -30 c-3 -8 -11 -14 -18 -14 -9 0 -9 3 0 12 7 7 13 21 13 33 1 17 2
18 6 2 3 -10 2 -25 -1 -33z m1280 -2 c-11 -10 -15 4 -8 28 l7 25 3 -23 c2 -13
1 -26 -2 -30z m688 32 c3 -9 6 -23 6 -32 -1 -12 -5 -10 -15 8 -8 14 -14 28
-15 33 0 13 18 7 24 -9z m-2614 -4 c0 -5 -4 -10 -10 -10 -5 0 -10 5 -10 10 0
6 5 10 10 10 6 0 10 -4 10 -10z m1880 0 c0 -5 0 -12 0 -15 0 -14 -13 -8 -16 8
-1 9 2 17 7 17 5 0 9 -4 9 -10z m635 -1 c11 -17 -1 -21 -15 -4 -8 9 -8 15 -2
15 6 0 14 -5 17 -11z m-1827 -24 c-3 -29 -18 -34 -18 -7 0 17 8 32 17 32 1 0
2 -11 1 -25z m-548 11 c0 -3 -4 -8 -10 -11 -5 -3 -10 -1 -10 4 0 6 5 11 10 11
6 0 10 -2 10 -4z m234 -11 c-4 -8 -10 -12 -15 -9 -11 6 -2 24 11 24 5 0 7 -7
4 -15z m30 -7 c-4 -13 -11 -38 -15 -57 -9 -40 -29 -65 -29 -35 1 10 7 30 15
44 8 14 14 35 15 48 0 12 5 22 11 22 6 0 8 -9 3 -22z m1921 -2 c-29 -23 -45
-25 -45 -5 0 5 9 9 19 9 11 0 23 5 26 10 3 6 12 10 18 10 7 0 -1 -11 -18 -24z
m-2464 -29 c-8 -8 -11 -5 -11 9 0 27 14 41 18 19 2 -9 -1 -22 -7 -28z m-154
11 c-3 -8 -6 -5 -6 6 -1 11 2 17 5 13 3 -3 4 -12 1 -19z m313 -23 c0 -5 -5 -3
-10 5 -5 8 -10 20 -10 25 0 6 5 3 10 -5 5 -8 10 -19 10 -25z m2240 -1 c30 -53
21 -68 -37 -60 -26 3 -51 10 -56 15 -8 8 49 81 64 81 4 0 17 -16 29 -36z
m-2200 -33 c22 -58 20 -85 -3 -30 -16 38 -31 97 -24 89 3 -3 15 -29 27 -59z
m1849 36 c12 5 13 3 5 -6 -17 -18 -58 -9 -62 13 -4 17 -2 17 18 3 12 -9 30
-13 39 -10z m787 7 c-3 -9 -6 -20 -6 -25 0 -6 -4 -7 -10 -4 -16 10 -12 45 6
45 11 0 14 -5 10 -16z m-151 -4 c14 -22 22 -110 11 -119 -8 -7 -11 3 -9 32 0
23 -5 46 -13 54 -16 16 -19 43 -5 43 6 0 13 -5 16 -10z m175 -37 c-11 -17 -11
-17 -6 0 3 10 7 26 7 35 1 15 2 15 6 0 2 -10 -1 -25 -7 -35z m56 4 c-15 -46
-26 -57 -26 -28 0 18 30 73 37 67 1 -1 -4 -18 -11 -39z m-2573 18 c-3 -9 -8
-14 -10 -11 -3 3 -2 9 2 15 9 16 15 13 8 -4z m136 -33 c1 -7 -3 -10 -9 -7 -5
3 -10 18 -9 33 0 24 1 25 9 7 5 -11 9 -26 9 -33z m191 38 c0 -5 -2 -10 -4 -10
-3 0 -8 5 -11 10 -3 6 -1 10 4 10 6 0 11 -4 11 -10z m114 1 c3 -5 -1 -11 -9
-15 -15 -6 -29 7 -18 18 9 9 21 8 27 -3z m1756 -16 c-7 -9 -15 -13 -18 -10 -3
2 1 11 8 20 7 9 15 13 18 10 3 -2 -1 -11 -8 -20z m181 -16 l-9 -34 -1 31 c-1
17 2 34 6 37 12 13 14 -1 4 -34z m-2871 -84 c0 -63 -4 -115 -9 -115 -9 0 -20
170 -13 207 2 13 8 23 13 23 5 0 9 -52 9 -115z m456 67 c-12 -11 -18 7 -10 30
l8 23 4 -23 c2 -13 1 -26 -2 -30z m2331 34 c-3 -7 -1 -19 4 -25 5 -6 6 -9 3
-6 -4 3 -13 0 -21 -6 -14 -12 -16 -6 -7 29 4 12 11 22 16 22 6 0 8 -6 5 -14z
m368 -138 c-6 -146 -18 -227 -35 -238 -4 -3 -19 -43 -35 -90 -15 -47 -40 -104
-56 -128 -16 -24 -29 -51 -29 -61 0 -23 -26 -58 -36 -48 -4 4 -2 22 4 40 7 19
12 41 12 51 0 18 44 111 65 136 6 8 21 40 33 70 41 110 54 173 53 252 -1 73
14 168 26 168 3 0 2 -69 -2 -152z m-3014 69 c-8 -8 -11 -1 -11 24 0 46 14 60
18 19 2 -18 -1 -37 -7 -43z m254 53 c-3 -5 -11 -10 -16 -10 -6 0 -7 5 -4 10 3
6 11 10 16 10 6 0 7 -4 4 -10z m645 6 c0 -11 -19 -15 -25 -6 -3 5 1 10 9 10 9
0 16 -2 16 -4z m40 -5 c0 -6 -4 -13 -10 -16 -5 -3 -10 1 -10 9 0 9 5 16 10 16
6 0 10 -4 10 -9z m1235 -1 c-3 -5 -11 -10 -16 -10 -6 0 -7 5 -4 10 3 6 11 10
16 10 6 0 7 -4 4 -10z m-1175 -15 c-7 -9 -15 -13 -17 -11 -7 7 7 26 19 26 6 0
6 -6 -2 -15z m1225 -3 c-6 -4 -12 -16 -13 -27 -2 -11 -8 -24 -13 -30 -6 -6 -7
4 -3 25 4 19 12 38 18 42 13 9 24 -1 11 -10z m308 -25 c21 -14 50 -28 66 -32
16 -3 47 -22 70 -41 22 -20 41 -30 41 -24 0 11 62 -27 68 -42 2 -5 8 -6 13 -2
20 12 7 -14 -20 -40 -40 -38 -56 -31 -164 75 -90 87 -133 116 -62 42 20 -21
43 -51 51 -66 15 -28 13 -27 -38 12 -29 23 -70 52 -90 66 -38 25 -52 50 -23
39 18 -7 20 7 4 23 -6 6 -8 16 -5 22 8 13 39 2 89 -32z m-2330 -12 c9 -18 9
-19 -6 -6 -10 7 -17 23 -16 35 0 14 2 16 6 6 3 -8 10 -24 16 -35z m150 17 c-6
-24 -23 -30 -23 -9 0 13 21 39 26 34 2 -2 1 -13 -3 -25z m2449 -36 c-14 -32
-17 -46 -9 -49 7 -2 9 -8 5 -12 -4 -4 -19 0 -34 9 l-26 18 21 22 c12 12 21 27
21 34 0 11 32 34 38 27 2 -2 -5 -24 -16 -49z m-1774 32 c-7 -34 -60 -42 -72
-12 -6 17 -1 17 25 4 15 -9 21 -7 25 5 7 18 25 20 22 3z m908 -53 c14 -28 14
-29 -1 -10 -9 11 -23 34 -31 50 -14 28 -14 29 1 10 9 -11 23 -33 31 -50z m344
55 c0 -5 -4 -10 -10 -10 -5 0 -10 5 -10 10 0 6 5 10 10 10 6 0 10 -4 10 -10z
m475 -28 c-15 -16 -16 -15 -4 12 7 15 15 23 17 16 3 -7 -3 -19 -13 -28z
m-2333 -4 c-9 -9 -12 -7 -12 12 0 19 3 21 12 12 9 -9 9 -15 0 -24z m508 27 c0
-11 -32 -67 -36 -63 -6 7 19 68 28 68 4 0 8 -2 8 -5z m1410 -27 c0 -13 -4 -29
-9 -37 -6 -10 -9 -2 -8 22 1 39 17 53 17 15z m320 2 c0 -5 -2 -10 -4 -10 -3 0
-8 5 -11 10 -3 6 -1 10 4 10 6 0 11 -4 11 -10z m175 -28 c-10 -10 -16 -12 -13
-7 3 6 8 19 13 30 5 14 9 16 12 7 3 -8 -3 -21 -12 -30z m-2865 18 c0 -5 -2
-10 -4 -10 -3 0 -8 5 -11 10 -3 6 -1 10 4 10 6 0 11 -4 11 -10z m1063 -20 c-3
-10 -12 -25 -19 -31 -12 -10 -13 -9 -9 5 3 9 7 23 10 31 7 22 24 18 18 -5z
m-263 -5 c-7 -8 -18 -15 -24 -15 -6 0 -2 7 8 15 25 19 32 19 16 0z m1260 11
c0 -2 -7 -6 -15 -10 -8 -3 -15 -1 -15 4 0 6 7 10 15 10 8 0 15 -2 15 -4z m180
0 c0 -3 -4 -8 -10 -11 -5 -3 -10 -1 -10 4 0 6 5 11 10 11 6 0 10 -2 10 -4z
m660 -16 c-6 -11 -13 -20 -16 -20 -2 0 0 9 6 20 6 11 13 20 16 20 2 0 0 -9 -6
-20z m-2580 0 c0 -5 -4 -10 -10 -10 -5 0 -10 5 -10 10 0 6 5 10 10 10 6 0 10
-4 10 -10z m704 -5 c-4 -8 -8 -15 -10 -15 -2 0 -4 7 -4 15 0 8 4 15 10 15 5 0
7 -7 4 -15z m1439 9 c3 -4 -3 -18 -14 -33 -11 -15 -21 -42 -21 -59 -1 -18 -5
-32 -10 -32 -9 0 -4 69 7 108 7 21 25 29 38 16z m660 -9 c-3 -9 -8 -14 -10
-11 -3 3 -2 9 2 15 9 16 15 13 8 -4z m-133 -44 c-14 -27 -30 -27 -30 0 0 27
33 56 38 34 2 -8 -2 -23 -8 -34z m-1810 9 c-6 -11 -13 -20 -16 -20 -2 0 0 9 6
20 6 11 13 20 16 20 2 0 0 -9 -6 -20z m840 -22 c19 -24 26 -37 17 -29 -19 15
-61 71 -54 71 2 0 19 -19 37 -42z m-1756 -40 c10 -23 12 -39 6 -43 -6 -4 -10
6 -10 22 0 21 -3 24 -10 13 -7 -12 -9 -11 -8 5 0 11 -3 29 -7 40 -14 37 13 2
29 -37z m676 32 c0 -11 -4 -20 -9 -20 -5 0 -7 9 -4 20 3 11 7 20 9 20 2 0 4
-9 4 -20z m151 -3 c-10 -9 -11 -8 -5 6 3 10 9 15 12 12 3 -3 0 -11 -7 -18z
m1140 0 c-10 -9 -11 -8 -5 6 3 10 9 15 12 12 3 -3 0 -11 -7 -18z m-1221 -32
c0 -28 9 -31 29 -12 11 10 12 9 6 -1 -8 -15 -84 -72 -95 -72 -6 0 -7 21 -1 53
0 4 6 7 11 7 7 0 7 -6 0 -20 -11 -21 -4 -25 20 -10 9 5 13 22 12 44 -2 20 2
36 8 36 5 0 10 -11 10 -25z m1287 -12 c-3 -10 -5 -4 -5 12 0 17 2 24 5 18 2
-7 2 -21 0 -30z m-2399 -68 c11 -38 29 -95 41 -125 34 -89 23 -108 -23 -41
-33 48 -56 128 -56 201 0 68 12 57 38 -35z m150 54 c-6 -16 -12 -29 -13 -27
-6 6 8 58 16 58 4 0 3 -14 -3 -31z m1031 -24 c-34 -57 -109 -125 -109 -99 0
16 36 63 59 77 15 8 35 25 45 36 27 30 28 26 5 -14z m-744 -5 c10 -11 16 -20
13 -20 -3 0 -13 9 -23 20 -10 11 -16 20 -13 20 3 0 13 -9 23 -20z m2325 -11
c0 -5 -7 -9 -15 -9 -8 0 -15 7 -15 15 0 9 6 12 15 9 8 -4 15 -10 15 -15z
m-202 -11 c-6 -18 -28 -21 -28 -4 0 9 7 16 16 16 9 0 14 -5 12 -12z m-2417
-21 c-10 -9 -11 -8 -5 6 3 10 9 15 12 12 3 -3 0 -11 -7 -18z m2719 17 c0 -3
-28 -18 -63 -34 -63 -30 -161 -55 -151 -39 3 5 15 9 27 9 12 0 58 16 102 34
44 19 81 35 83 35 1 1 2 -1 2 -5z m-2352 -13 c17 -10 12 -43 -7 -49 -10 -3
-11 2 -6 18 5 15 2 26 -6 31 -8 5 -9 9 -4 9 6 0 16 -4 23 -9z m2012 -27 c0 -2
-11 -4 -25 -4 -14 0 -25 4 -25 9 0 4 11 6 25 3 14 -2 25 -6 25 -8z m-2363 -31
c-3 -10 -5 -4 -5 12 0 17 2 24 5 18 2 -7 2 -21 0 -30z m403 24 c0 -20 -28 -73
-45 -87 -19 -16 -19 0 0 26 8 10 15 28 15 40 0 11 3 24 7 27 11 11 23 8 23 -6z
m1800 3 c8 -5 11 -10 5 -10 -5 0 -17 5 -25 10 -8 5 -10 10 -5 10 6 0 17 -5 25
-10z m787 -12 c-3 -8 -6 -5 -6 6 -1 11 2 17 5 13 3 -3 4 -12 1 -19z m-2837 2
c0 -5 -5 -10 -11 -10 -5 0 -7 5 -4 10 3 6 8 10 11 10 2 0 4 -4 4 -10z m290
-15 c0 -30 -36 -176 -79 -321 -12 -39 -21 -77 -21 -86 0 -9 -9 -26 -20 -39
l-21 -24 3 72 c2 42 0 69 -6 66 -5 -3 -6 -1 -2 5 3 6 11 33 16 61 17 93 51
189 75 215 13 14 26 35 30 46 7 24 25 27 25 5z m225 5 c3 -5 -1 -10 -10 -10
-9 0 -13 5 -10 10 3 6 8 10 10 10 2 0 7 -4 10 -10z m140 -10 c-49 -18 -94 -26
-83 -14 8 7 98 32 118 32 8 0 -7 -8 -35 -18z m1472 4 c-3 -3 -12 -4 -19 -1 -8
3 -5 6 6 6 11 1 17 -2 13 -5z m128 -14 c-3 -5 -18 -9 -33 -9 l-27 1 30 8 c17
4 31 8 33 9 2 0 0 -3 -3 -9z m62 4 c-3 -3 -12 -4 -19 -1 -8 3 -5 6 6 6 11 1
17 -2 13 -5z m488 -41 c-3 -21 -15 -49 -25 -63 -18 -23 -18 -21 2 42 24 73 34
82 23 21z m-2695 13 c0 -3 -4 -8 -10 -11 -5 -3 -10 -1 -10 4 0 6 5 11 10 11 6
0 10 -2 10 -4z m-24 -52 c-4 -9 -9 -15 -11 -12 -3 3 -3 13 1 22 4 9 9 15 11
12 3 -3 3 -13 -1 -22z m-56 -2 c0 -10 -7 -27 -15 -38 -14 -18 -15 -17 -9 11
10 47 24 62 24 27z m-210 -8 c0 -8 -4 -12 -10 -9 -5 3 -10 10 -10 16 0 5 5 9
10 9 6 0 10 -7 10 -16z m-93 -81 c3 -13 9 -23 13 -23 5 0 12 -9 15 -21 7 -20
7 -20 28 -2 18 16 20 16 14 1 -3 -9 -1 -18 4 -20 6 -2 4 -19 -6 -41 l-16 -39
-20 26 c-26 33 -89 169 -89 192 0 22 48 -40 57 -73z m71 54 c17 -47 14 -56 -8
-28 -20 23 -27 61 -12 61 4 0 13 -15 20 -33z m263 -44 c-9 -16 -10 -16 -11 -1
0 9 3 25 7 35 7 16 8 17 11 1 2 -10 -1 -25 -7 -35z m2549 20 c0 -22 -2 -25
-10 -13 -13 20 -13 40 0 40 6 0 10 -12 10 -27z m64 2 c-4 -8 -8 -15 -10 -15
-2 0 -4 7 -4 15 0 8 4 15 10 15 5 0 7 -7 4 -15z m74 -61 c-28 -60 -27 -59 -34
-51 -3 3 6 28 22 56 34 64 43 60 12 -5z m-2657 -11 c-12 -20 -14 -14 -5 12 4
9 9 14 11 11 3 -2 0 -13 -6 -23z m184 -3 c-4 -12 -9 -19 -12 -17 -3 3 -2 15 2
27 4 12 9 19 12 17 3 -3 2 -15 -2 -27z m2312 -22 c-3 -8 -6 -5 -6 6 -1 11 2
17 5 13 3 -3 4 -12 1 -19z m-2655 -20 c-7 -7 -12 -8 -12 -2 0 6 3 14 7 17 3 4
9 5 12 2 2 -3 -1 -11 -7 -17z m308 -99 c-6 -24 -13 -55 -16 -68 -3 -13 -16
-44 -29 -70 l-24 -46 3 42 c2 23 13 58 25 79 12 20 20 43 17 50 -3 7 -1 16 3
19 5 2 12 22 17 42 5 27 9 32 11 17 2 -11 -1 -40 -7 -65z m-368 46 c6 -14 8
-28 5 -31 -9 -9 -37 22 -37 40 0 24 19 19 32 -9z m218 -32 c-11 -17 -11 -17
-6 0 3 10 7 26 7 35 1 15 2 15 6 0 2 -10 -1 -25 -7 -35z m-70 -56 c0 -2 -12
-14 -27 -28 l-28 -24 24 28 c23 25 31 32 31 24z m33 -37 c-9 -16 -21 -30 -26
-30 -9 0 -1 17 21 43 23 26 25 21 5 -13z m337 20 c0 -5 -5 -10 -11 -10 -5 0
-7 5 -4 10 3 6 8 10 11 10 2 0 4 -4 4 -10z m-350 -77 c0 -5 -8 -17 -17 -28
-14 -18 -15 -18 -9 -2 3 10 6 23 6 28 0 5 5 9 10 9 6 0 10 -3 10 -7z m-49 -26
c-10 -9 -11 -8 -5 6 3 10 9 15 12 12 3 -3 0 -11 -7 -18z m232 -32 c-3 -11 -12
-29 -20 -40 -13 -18 -14 -16 -8 25 4 25 10 49 12 54 9 14 23 -18 16 -39z
m-206 -25 c-17 -28 -27 -25 -14 4 7 13 15 22 19 20 4 -3 2 -14 -5 -24z m80 8
c-3 -8 -6 -5 -6 6 -1 11 2 17 5 13 3 -3 4 -12 1 -19z m-66 -36 c-6 -12 -7 -22
-2 -24 5 -2 3 -12 -6 -23 -15 -20 -15 -20 -10 3 3 12 1 22 -4 22 -5 0 -2 11 7
25 19 29 31 27 15 -3z m214 -100 c-15 -15 -36 65 -27 101 4 16 9 7 19 -37 7
-33 11 -61 8 -64z m-185 -32 c0 -14 6 -34 13 -45 19 -28 40 -124 35 -160 -5
-34 -8 -28 -32 65 -9 36 -24 88 -32 115 -15 53 -11 93 6 65 6 -8 10 -26 10
-40z m209 -42 c-1 -31 -1 -31 -8 -8 -5 14 -6 28 -4 33 9 15 13 6 12 -25z m15
-94 c3 -8 2 -12 -4 -9 -6 3 -10 10 -10 16 0 14 7 11 14 -7z m-7 -546 c-3 -8
-6 -5 -6 6 -1 11 2 17 5 13 3 -3 4 -12 1 -19z m23 -95 c-1 -31 -3 -35 -11 -20
-6 9 -7 26 -4 37 10 30 15 24 15 -17z m15 -73 c0 -7 -6 -15 -12 -17 -8 -3 -13
4 -13 17 0 13 5 20 13 18 6 -3 12 -11 12 -18z m-8 -85 c-1 -25 -3 -31 -10 -20
-7 13 -2 55 8 55 2 0 3 -16 2 -35z m2108 -85 c5 -17 4 -22 -3 -15 -5 6 -13 21
-17 35 -5 17 -4 22 3 15 5 -5 13 -21 17 -35z m-2120 3 c-21 -54 -29 -142 -49
-558 -4 -86 -4 -84 -18 -60 -6 10 -13 63 -16 117 -3 54 -9 95 -13 92 -5 -3 -9
-49 -9 -102 0 -87 18 -198 49 -294 7 -22 6 -25 -7 -21 -12 5 -14 1 -9 -23 3
-16 9 -38 13 -49 4 -11 3 -17 -1 -12 -12 10 -35 78 -35 103 0 11 -4 24 -9 30
-18 18 -34 187 -28 294 9 142 28 230 72 325 14 29 31 88 42 148 3 15 10 27 15
27 6 0 7 -8 3 -17z m2154 -93 c0 -13 -1 -13 -8 0 -5 8 -12 26 -15 40 l-7 25
15 -25 c9 -14 15 -32 15 -40z m151 50 c13 -8 13 -10 -2 -10 -9 0 -20 5 -23 10
-8 13 5 13 25 0z m-2499 -582 c5 -78 10 -152 12 -162 1 -15 -7 -22 -31 -28
-18 -5 -30 -13 -27 -18 3 -4 -2 -7 -10 -6 -20 3 -20 -3 -6 101 21 162 41 269
48 261 3 -2 9 -69 14 -148z m-61 -343 c0 -7 -7 -15 -15 -19 -16 -6 -19 3 -9
28 7 18 24 12 24 -9z"/>
<path d="M2140 4759 c0 -5 5 -7 10 -4 6 3 10 8 10 11 0 2 -4 4 -10 4 -5 0 -10
-5 -10 -11z"/>
<path d="M2050 4640 c0 -6 -10 -24 -21 -39 -12 -16 -19 -35 -17 -42 2 -7 16
11 31 39 15 29 23 52 17 52 -5 0 -10 -5 -10 -10z"/>
<path d="M2388 4643 c0 -5 -2 -12 -2 -18 -1 -5 -8 -21 -15 -34 l-13 -23 26 18
c26 20 33 34 16 34 -5 0 -7 7 -4 15 4 8 3 15 0 15 -3 0 -7 -3 -8 -7z"/>
<path d="M2220 4570 c-13 -8 -12 -10 3 -10 9 0 17 5 17 10 0 12 -1 12 -20 0z"/>
<path d="M2450 4565 c-7 -9 -8 -15 -2 -15 5 0 12 7 16 15 3 8 4 15 2 15 -2 0
-9 -7 -16 -15z"/>
<path d="M2006 4524 c-10 -25 1 -29 14 -5 6 12 7 21 1 21 -5 0 -12 -7 -15 -16z"/>
<path d="M2323 4518 c-15 -20 -25 -38 -20 -38 3 0 12 11 21 25 17 26 16 35 -1
13z"/>
<path d="M1991 4483 c-1 -6 -4 -20 -7 -30 -5 -17 -5 -17 6 0 6 10 9 23 6 30
-3 9 -5 9 -5 0z"/>
<path d="M2013 4463 c-3 -10 -8 -22 -11 -27 -3 -5 0 -6 5 -3 11 7 25 47 17 47
-3 0 -7 -8 -11 -17z"/>
<path d="M1956 4389 c-10 -24 -36 -82 -57 -129 -59 -134 -55 -157 6 -31 30 63
61 121 68 129 9 13 9 14 0 8 -16 -9 -16 -1 -2 25 6 11 9 25 7 31 -2 6 -12 -9
-22 -33z"/>
<path d="M2078 4283 c-18 -21 -31 -43 -25 -43 2 0 13 14 25 30 25 33 24 41 0
13z"/>
<path d="M1917 4173 c-4 -3 -7 -11 -7 -17 0 -6 5 -5 12 2 6 6 9 14 7 17 -3 3
-9 2 -12 -2z"/>
<path d="M1886 4105 c-9 -26 -7 -32 5 -12 6 10 9 21 6 23 -2 3 -7 -2 -11 -11z"/>
<path d="M1710 3624 l-45 -14 53 5 c36 3 52 0 52 -8 0 -7 4 -6 10 3 6 9 5 17
-3 22 -14 9 -11 10 -67 -8z"/>
<path d="M1505 4390 c-3 -5 -1 -10 4 -10 6 0 11 5 11 10 0 6 -2 10 -4 10 -3 0
-8 -4 -11 -10z"/>
<path d="M4590 3355 c-7 -9 -11 -18 -8 -20 3 -3 11 1 18 10 7 9 11 18 8 20 -3
3 -11 -1 -18 -10z"/>
<path d="M1501 2840 c0 -8 4 -24 9 -35 5 -13 9 -14 9 -5 0 8 -4 24 -9 35 -5
13 -9 14 -9 5z"/>
<path d="M1523 2759 c10 -38 35 -97 46 -103 5 -4 -1 21 -15 55 -26 67 -41 90
-31 48z"/>
<path d="M1621 2494 c0 -11 3 -14 6 -6 3 7 2 16 -1 19 -3 4 -6 -2 -5 -13z"/>
<path d="M2032 305 c0 -16 6 -46 13 -65 17 -45 18 -29 0 40 -9 39 -13 46 -13
25z"/>
<path d="M5607 5925 c-24 -50 -21 -68 3 -20 11 22 19 43 17 48 -1 5 -10 -8
-20 -28z"/>
<path d="M4030 5774 c0 -5 21 -31 46 -59 41 -45 43 -46 18 -10 -36 51 -64 81
-64 69z"/>
<path d="M2245 5599 c-81 -34 -115 -53 -133 -73 -9 -11 -12 -16 -5 -13 6 4 13
2 15 -4 2 -6 16 1 31 15 15 14 27 20 27 14 0 -7 12 0 28 14 15 14 42 33 60 42
17 9 32 19 32 21 0 7 2 7 -55 -16z"/>
<path d="M4315 5560 c3 -5 8 -10 11 -10 2 0 4 5 4 10 0 6 -5 10 -11 10 -5 0
-7 -4 -4 -10z"/>
<path d="M6030 5535 c-64 -41 -59 -45 11 -9 40 20 60 24 93 20 l41 -6 -45 15
c-25 8 -45 15 -45 15 0 0 -25 -16 -55 -35z"/>
<path d="M6205 5530 c11 -5 27 -9 35 -9 9 0 8 4 -5 9 -11 5 -27 9 -35 9 -9 0
-8 -4 5 -9z"/>
<path d="M4211 5514 c0 -11 3 -14 6 -6 3 7 2 16 -1 19 -3 4 -6 -2 -5 -13z"/>
<path d="M5940 5483 c-47 -30 -266 -303 -243 -303 4 0 24 24 43 54 19 30 38
52 42 50 4 -3 8 1 8 8 0 22 144 181 173 191 6 2 10 7 7 10 -3 3 -16 -2 -30
-10z"/>
<path d="M2025 5452 c-16 -11 -37 -27 -45 -37 -11 -14 -5 -12 20 5 19 14 46
30 60 37 14 6 18 12 10 12 -8 1 -28 -7 -45 -17z"/>
<path d="M4244 5392 c4 -7 16 -12 26 -12 11 0 42 -5 70 -11 49 -10 103 -50
128 -95 6 -10 14 -15 18 -11 4 4 -17 31 -47 61 -41 39 -65 54 -95 59 -21 4
-54 10 -73 13 -25 5 -32 4 -27 -4z"/>
<path d="M6388 5103 c-3 -16 -4 -192 -2 -393 1 -201 -1 -448 -5 -550 -4 -102
-6 -188 -4 -193 3 -4 6 -314 8 -688 2 -375 7 -684 10 -687 3 -3 5 567 5 1266
0 700 -2 1272 -4 1272 -2 0 -6 -12 -8 -27z"/>
<path d="M54 4979 c21 -12 64 -25 95 -29 31 -5 65 -12 76 -16 14 -5 17 -4 10
4 -5 6 -40 16 -76 21 -37 6 -80 18 -95 26 -16 8 -33 15 -39 14 -5 0 8 -9 29
-20z"/>
<path d="M1150 3906 c0 -2 7 -7 16 -10 8 -3 12 -2 9 4 -6 10 -25 14 -25 6z"/>
<path d="M1240 3836 c0 -2 8 -10 18 -17 15 -13 16 -12 3 4 -13 16 -21 21 -21
13z"/>
<path d="M0 3706 c0 -8 171 -57 188 -54 9 2 -21 14 -68 26 -47 13 -93 25 -102
28 -10 3 -18 3 -18 0z"/>
<path d="M225 3640 c27 -12 43 -12 25 0 -8 5 -22 9 -30 9 -10 0 -8 -3 5 -9z"/>
<path d="M1817 2983 c-4 -3 -7 -11 -7 -17 0 -6 5 -5 12 2 6 6 9 14 7 17 -3 3
-9 2 -12 -2z"/>
<path d="M1805 2940 c-3 -5 -1 -10 4 -10 6 0 11 5 11 10 0 6 -2 10 -4 10 -3 0
-8 -4 -11 -10z"/>
<path d="M1807 2903 c-4 -3 -7 -16 -6 -27 0 -19 1 -19 10 3 10 24 8 36 -4 24z"/>
<path d="M12 1165 c-9 -18 -12 -84 -11 -213 2 -130 5 -172 10 -137 7 46 14 56
86 124 43 40 66 66 51 56 -25 -15 -29 -15 -50 -1 -12 9 -33 16 -45 16 -36 0
-47 33 -33 100 14 67 10 95 -8 55z"/>
<path d="M480 1134 c-1 -30 -21 -226 -26 -261 -4 -28 -11 -43 -21 -43 -8 0
-11 -5 -8 -11 4 -6 13 -8 21 -5 25 10 27 -22 5 -69 -12 -25 -21 -47 -21 -49 0
-3 -13 -33 -29 -68 -16 -35 -32 -74 -36 -88 -7 -24 -19 -55 -52 -130 -8 -19
-25 -62 -38 -96 -28 -75 -62 -141 -88 -174 l-19 -25 6 25 c9 30 35 99 47 123
5 10 21 55 36 100 14 45 30 86 34 91 15 16 10 26 -8 19 -17 -6 -17 -5 0 14 9
11 17 23 17 28 0 11 53 129 61 135 3 3 6 21 6 40 0 55 15 114 32 127 14 11 14
12 -3 13 -16 0 -18 5 -13 43 15 102 16 117 1 52 -9 -38 -22 -77 -29 -85 -7 -8
-10 -20 -8 -27 2 -6 -5 -30 -17 -53 -12 -23 -17 -39 -12 -36 5 3 18 23 27 43
24 50 30 28 11 -38 -19 -63 -19 -62 -3 -53 9 6 9 4 1 -7 -23 -28 -94 -203 -89
-216 2 -8 1 -12 -4 -9 -4 3 -8 -7 -9 -22 0 -15 -10 -52 -20 -82 -20 -57 -101
-231 -111 -240 -4 -3 -12 -17 -18 -32 -7 -16 -17 -28 -23 -28 -15 0 -12 16 6
34 14 15 94 176 94 191 0 15 -21 -9 -34 -38 -7 -18 -23 -41 -36 -52 l-23 -20
8 25 c4 14 20 51 36 83 33 63 84 199 100 262 6 21 15 45 21 52 6 8 9 16 6 19
-7 7 -83 -112 -107 -169 -11 -26 -31 -62 -45 -80 -13 -18 -29 -50 -36 -72 -7
-22 -24 -56 -38 -75 l-24 -35 6 42 c3 23 22 73 41 112 19 38 35 73 35 78 0 4
12 30 26 57 14 26 24 50 22 52 -4 3 -41 -68 -70 -131 -7 -16 -25 -52 -40 -78
-26 -45 -28 -55 -27 -155 1 -91 3 -99 9 -52 4 31 18 73 32 95 13 22 35 66 47
98 13 31 27 60 32 63 5 2 27 44 50 92 23 48 43 81 46 74 3 -7 0 -19 -6 -26 -6
-7 -22 -44 -37 -82 -14 -38 -40 -98 -58 -134 -50 -100 -63 -131 -76 -193 -10
-41 -17 -56 -27 -53 -7 3 -13 -1 -13 -9 0 -13 113 -15 882 -15 485 0 879 2
877 5 -3 2 -22 8 -43 12 -36 8 -39 12 -57 67 -19 64 -34 136 -30 150 3 11 -26
100 -46 143 -14 30 -14 35 5 74 l21 41 -25 -23 c-29 -28 -42 -18 -27 21 10 28
10 29 -8 20 -10 -6 -20 -21 -21 -33 0 -12 -2 -28 -2 -35 -1 -8 -9 -19 -19 -26
-9 -7 -17 -18 -17 -24 0 -5 -7 -12 -15 -16 -21 -8 -19 0 19 79 19 38 38 81 41
95 7 24 6 24 -8 5 -8 -11 -18 -31 -22 -45 -4 -14 -14 -35 -22 -48 l-14 -23
-48 50 c-26 28 -52 51 -59 51 -6 0 -1 -10 11 -23 12 -13 29 -32 38 -43 9 -10
25 -24 35 -30 18 -12 18 -12 -2 -32 -12 -12 -24 -27 -27 -34 -4 -9 -17 0 -39
26 l-34 39 -14 -47 c-7 -26 -21 -53 -32 -59 -10 -7 -18 -17 -18 -24 0 -7 -5
-13 -11 -13 -5 0 -7 -4 -4 -10 3 -5 1 -10 -4 -10 -25 0 -11 38 42 114 15 21
27 45 27 53 0 10 9 13 28 11 19 -2 28 -9 30 -25 2 -13 8 -23 13 -23 11 0 12
31 1 45 -7 10 -62 38 -95 49 -15 5 -17 12 -11 40 5 32 4 35 -17 33 -13 -1 -34
-12 -45 -24 -12 -13 -25 -23 -30 -23 -11 0 -37 38 -44 64 -3 11 -11 21 -18 24
-9 3 -10 -3 -2 -23 9 -24 8 -26 -11 -20 -16 5 -20 3 -17 -6 3 -8 12 -14 20
-14 18 0 48 -23 48 -36 0 -15 -30 -10 -36 6 -6 14 -8 14 -19 -1 -11 -15 -13
-15 -29 7 -11 16 -19 20 -24 12 -5 -8 -13 -6 -30 7 -25 21 -29 45 -8 57 7 4
17 19 20 33 l7 25 -21 -25 c-11 -14 -25 -35 -30 -48 -8 -17 -15 -22 -30 -17
-14 5 -20 2 -20 -9 0 -9 -9 -16 -20 -16 -23 0 -27 28 -5 36 14 6 22 34 9 34
-4 0 -18 -12 -31 -26 l-24 -26 -25 23 c-13 13 -22 29 -20 36 3 7 0 10 -8 7 -6
-2 -29 12 -49 32 -20 21 -37 34 -37 29 0 -4 -7 -2 -15 5 -8 7 -15 9 -15 6 0
-4 -6 -2 -12 3 -61 50 -78 61 -78 52 0 -6 5 -11 10 -11 6 0 10 -7 10 -15 0 -8
-4 -15 -10 -15 -5 0 -10 5 -10 10 0 6 -6 10 -14 10 -8 0 -16 7 -20 15 -8 21
-66 55 -94 55 -13 0 -20 4 -17 10 3 6 -1 10 -9 10 -11 0 -14 8 -11 28 11 68
27 274 21 279 -3 4 -6 2 -6 -3z m40 -347 c29 8 26 -19 -14 -112 -19 -44 -47
-111 -61 -149 -15 -38 -31 -77 -35 -85 -18 -36 -60 -139 -60 -149 0 -5 -7 -15
-15 -22 -24 -20 -19 10 14 93 95 240 100 254 67 198 -14 -24 -38 -76 -52 -116
-26 -74 -81 -175 -68 -125 3 14 17 52 31 85 14 33 33 85 43 115 17 50 41 108
102 240 11 25 23 40 25 34 2 -7 13 -10 23 -7z m36 -65 c-9 -23 -11 -42 -6 -42
6 0 10 6 10 14 0 7 7 20 16 27 14 11 18 11 29 -4 6 -9 15 -14 18 -10 4 3 7 -1
7 -11 0 -18 -35 -77 -69 -115 -11 -13 -23 -39 -27 -57 -6 -34 -29 -62 -41 -50
-4 4 -2 15 4 25 21 34 42 91 33 91 -5 0 -14 -16 -20 -35 -6 -19 -17 -38 -23
-42 -7 -5 -22 -28 -34 -53 -18 -36 -21 -39 -17 -15 4 17 11 34 15 40 5 5 9 15
9 23 0 8 6 28 14 45 8 18 21 52 30 77 20 62 57 143 62 137 2 -2 -2 -23 -10
-45z m134 -15 c0 -2 -9 -22 -20 -45 -11 -22 -20 -45 -20 -50 0 -5 -9 -17 -20
-27 -18 -16 -20 -16 -26 -1 -6 16 61 126 78 126 4 0 8 -1 8 -3z m0 -81 c-11
-25 -26 -46 -32 -46 -9 0 -9 3 0 12 7 7 12 19 12 28 0 18 30 64 37 57 2 -3 -5
-26 -17 -51z m70 42 c-1 -22 -34 -81 -47 -86 -20 -6 -15 23 7 43 11 10 20 26
20 37 0 10 5 18 10 18 6 0 10 -6 10 -12z m39 -37 c8 -5 10 -14 6 -21 -5 -8 -4
-11 3 -6 12 7 28 -12 18 -21 -11 -11 -56 20 -56 39 0 20 8 22 29 9z m-189 -81
c0 -11 -29 -40 -41 -40 -14 0 -10 27 7 44 15 16 34 13 34 -4z m670 -15 c0 -18
-5 -25 -20 -25 -22 0 -26 20 -8 38 19 19 28 14 28 -13z m-244 -8 c7 3 16 -2
20 -10 3 -9 11 -14 17 -11 7 2 18 0 26 -5 11 -7 10 -12 -6 -28 -11 -11 -27
-22 -36 -26 -14 -5 -15 -2 -7 19 6 14 6 23 1 20 -12 -8 -48 38 -42 54 4 12 6
12 9 -2 2 -10 9 -15 18 -11z m-87 -38 c-21 -13 -31 14 -11 29 14 11 18 10 20
-4 2 -9 -2 -20 -9 -25z m-399 -9 c-6 -11 -13 -20 -16 -20 -2 0 0 9 6 20 6 11
13 20 16 20 2 0 0 -9 -6 -20z m625 -32 c9 -28 9 -35 -1 -35 -16 0 -27 25 -17
39 3 6 1 8 -4 5 -14 -9 -37 19 -28 33 11 17 37 -5 50 -42z m87 41 c3 -11 -35
-109 -42 -109 -20 0 -20 22 -1 46 26 32 26 43 4 60 -16 13 -15 14 10 11 15 -2
28 -5 29 -8z m53 -17 c3 -8 -4 -28 -15 -46 -30 -46 -70 -92 -70 -80 0 5 4 14
8 20 7 7 21 50 37 110 4 16 33 13 40 -4z m-287 -15 c3 -16 1 -17 -17 -7 -25
13 -28 33 -4 28 10 -2 19 -11 21 -21z m188 12 c3 -6 1 -16 -5 -22 -9 -9 -14
-8 -21 3 -5 8 -10 18 -10 23 0 11 28 8 36 -4z m-731 -55 c-13 -25 -15 -26 -15
-7 0 32 11 56 22 45 5 -5 2 -21 -7 -38z m655 5 c0 -18 -19 -17 -36 2 -16 17
-16 22 -4 29 14 9 40 -11 40 -31z m-42 -28 c3 -8 -1 -12 -9 -9 -7 2 -15 10
-17 17 -3 8 1 12 9 9 7 -2 15 -10 17 -17z m-688 -41 c-6 -12 -14 -19 -17 -17
-2 3 1 15 7 27 6 12 14 19 17 17 2 -3 -1 -15 -7 -27z m800 6 c0 -20 -12 -27
-27 -15 -20 18 -16 38 7 32 11 -3 20 -11 20 -17z m-15 -66 c3 -5 1 -10 -4 -10
-6 0 -11 5 -11 10 0 6 2 10 4 10 3 0 8 -4 11 -10z m-915 -50 c-7 -17 -15 -28
-18 -26 -2 3 1 19 8 36 7 17 15 28 18 26 2 -3 -1 -19 -8 -36z m1060 10 c0 -5
-4 -10 -10 -10 -5 0 -10 5 -10 10 0 6 5 10 10 10 6 0 10 -4 10 -10z m-1022
-38 c-16 -37 -28 -50 -28 -30 0 28 19 70 30 63 6 -3 5 -16 -2 -33z m-67 -35
c-10 -9 -11 -8 -5 6 3 10 9 15 12 12 3 -3 0 -11 -7 -18z m-20 -50 c-8 -8 -11
-7 -11 4 0 9 3 19 7 23 4 4 9 2 11 -4 3 -7 -1 -17 -7 -23z m-11 -24 c0 -5 -9
-19 -20 -33 -16 -20 -19 -21 -14 -5 11 31 34 58 34 38z"/>
<path d="M475 739 c-4 -6 -5 -12 -2 -15 2 -3 7 2 10 11 7 17 1 20 -8 4z"/>
<path d="M596 673 c-6 -14 -5 -15 5 -6 7 7 10 15 7 18 -3 3 -9 -2 -12 -12z"/>
<path d="M821 1103 c0 -12 -4 -30 -7 -40 -5 -17 -5 -17 6 0 6 10 9 28 7 40 -4
22 -4 22 -6 0z"/>
<path d="M880 1027 c0 -27 -4 -35 -14 -31 -22 9 -39 -33 -33 -81 4 -23 2 -46
-3 -51 -5 -5 18 -8 58 -7 37 1 104 2 150 2 50 1 82 5 82 11 0 6 -6 10 -12 8
-7 -1 -24 4 -37 11 -13 7 -34 14 -48 16 -41 4 -44 17 -17 74 29 64 25 79 -6
23 -17 -29 -27 -38 -41 -35 -11 3 -19 14 -19 25 0 19 -8 29 -43 57 -15 12 -17
10 -17 -22z"/>
<path d="M48 1043 c6 -2 18 -2 25 0 6 3 1 5 -13 5 -14 0 -19 -2 -12 -5z"/>
<path d="M795 1020 c-4 -12 -5 -24 -2 -27 3 -2 8 5 12 17 4 12 5 24 2 27 -3 2
-8 -5 -12 -17z"/>
<path d="M135 901 c-25 -38 -45 -73 -45 -78 0 -7 31 37 85 120 9 15 14 27 11
27 -4 0 -27 -31 -51 -69z"/>
<path d="M761 914 c-12 -31 -20 -58 -18 -61 2 -2 14 22 25 54 12 31 20 59 18
61 -2 2 -14 -22 -25 -54z"/>
<path d="M572 880 c-9 -16 -23 -30 -29 -30 -7 0 -13 -4 -13 -10 0 -5 27 -7 68
-3 68 6 87 12 65 20 -7 3 -13 12 -13 21 0 14 -2 14 -9 3 -10 -16 -31 -6 -31
15 0 24 -20 16 -38 -16z"/>
<path d="M278 833 c7 -3 16 -2 19 1 4 3 -2 6 -13 5 -11 0 -14 -3 -6 -6z"/>
<path d="M310 829 c0 -5 5 -7 10 -4 6 3 10 8 10 11 0 2 -4 4 -10 4 -5 0 -10
-5 -10 -11z"/>
<path d="M6387 718 c-9 -107 -7 -216 3 -248 5 -15 8 48 9 153 1 97 -1 177 -3
177 -1 0 -6 -37 -9 -82z"/>
<path d="M405 762 c-10 -7 -18 -32 -10 -32 2 0 9 9 15 20 12 22 11 24 -5 12z"/>
<path d="M226 713 c-6 -14 -5 -15 5 -6 7 7 10 15 7 18 -3 3 -9 -2 -12 -12z"/>
<path d="M1915 700 c-4 -12 -5 -24 -2 -27 3 -2 8 5 12 17 4 12 5 24 2 27 -3 2
-8 -5 -12 -17z"/>
<path d="M1839 683 c-13 -16 -12 -17 4 -4 16 13 21 21 13 21 -2 0 -10 -8 -17
-17z"/>
<path d="M196 647 c-9 -24 -39 -70 -66 -102 -28 -33 -50 -63 -50 -69 0 -5 -7
-18 -17 -28 -9 -10 -11 -18 -5 -18 6 0 21 18 32 39 10 22 31 48 45 59 24 19
92 148 83 158 -3 2 -13 -15 -22 -39z"/>
<path d="M285 679 c-4 -6 -5 -12 -2 -15 2 -3 7 2 10 11 7 17 1 20 -8 4z"/>
<path d="M1666 658 c-15 -37 -30 -95 -23 -88 7 7 45 120 40 120 -2 0 -10 -15
-17 -32z"/>
<path d="M1756 655 c-3 -9 -6 -26 -5 -38 1 -14 4 -9 9 13 9 37 7 52 -4 25z"/>
<path d="M1627 641 c-4 -17 -3 -21 5 -13 5 5 8 16 6 23 -3 8 -7 3 -11 -10z"/>
<path d="M1887 593 c-10 -38 -26 -81 -35 -98 -15 -29 -15 -29 3 -15 17 14 18
13 11 -5 -5 -11 -12 -33 -16 -50 -5 -16 -15 -55 -23 -85 -9 -30 -14 -56 -13
-58 10 -9 48 111 65 204 11 60 23 124 27 142 12 57 -1 34 -19 -35z"/>
<path d="M266 635 c-9 -26 -7 -32 5 -12 6 10 9 21 6 23 -2 3 -7 -2 -11 -11z"/>
<path d="M1105 640 c3 -5 11 -10 16 -10 6 0 7 5 4 10 -3 6 -11 10 -16 10 -6 0
-7 -4 -4 -10z"/>
<path d="M1794 605 c-7 -19 -14 -43 -14 -54 0 -11 -12 -33 -26 -50 -14 -17
-23 -31 -19 -31 16 0 55 56 55 78 0 12 7 38 14 57 8 19 13 35 10 35 -3 0 -12
-16 -20 -35z"/>
<path d="M84 578 l-29 -33 33 29 c30 28 37 36 29 36 -2 0 -16 -15 -33 -32z"/>
<path d="M1678 555 c-9 -25 -14 -45 -12 -45 6 0 26 42 30 66 7 38 -2 28 -18
-21z"/>
<path d="M1731 572 c-17 -31 -13 -40 5 -14 9 13 14 26 11 29 -3 2 -10 -4 -16
-15z"/>
<path d="M1816 569 c-2 -8 -9 -28 -14 -46 -6 -17 -7 -34 -4 -38 4 -3 12 15 19
42 7 26 10 49 8 52 -3 2 -6 -2 -9 -10z"/>
<path d="M1711 523 c-1 -6 -4 -20 -7 -30 -5 -17 -5 -17 6 0 6 10 9 23 6 30 -3
9 -5 9 -5 0z"/>
<path d="M1646 475 c-9 -26 -7 -32 5 -12 6 10 9 21 6 23 -2 3 -7 -2 -11 -11z"/>
<path d="M1686 454 c-4 -9 -4 -19 -1 -22 2 -3 7 3 11 12 4 9 4 19 1 22 -2 3
-7 -3 -11 -12z"/>
<path d="M1752 426 c-12 -27 -21 -51 -19 -52 7 -7 48 77 44 89 -2 6 -14 -10
-25 -37z"/>
<path d="M3 420 c0 -25 2 -35 4 -22 2 12 2 32 0 45 -2 12 -4 2 -4 -23z"/>
<path d="M1666 403 c-6 -14 -5 -15 5 -6 7 7 10 15 7 18 -3 3 -9 -2 -12 -12z"/>
<path d="M1608 404 c-4 -4 1 -21 11 -38 10 -17 26 -57 35 -88 10 -32 23 -61
29 -65 6 -4 8 0 4 10 -3 8 -9 32 -13 51 -3 20 -10 36 -15 36 -5 0 -9 11 -9 25
0 13 -6 28 -14 32 -8 4 -15 16 -17 26 -2 11 -7 15 -11 11z"/>
<path d="M1 344 c0 -11 3 -14 6 -6 3 7 2 16 -1 19 -3 4 -6 -2 -5 -13z"/>
<path d="M1 304 c0 -11 3 -14 6 -6 3 7 2 16 -1 19 -3 4 -6 -2 -5 -13z"/>
</g>
</svg>
